<svg xmlns="http://www.w3.org/2000/svg" xmlns:xlink="http://www.w3.org/1999/xlink" width="500" zoomAndPan="magnify" viewBox="0 0 375 374.999991" height="500" preserveAspectRatio="xMidYMid meet" version="1.0"><path fill="#22141a" d="M 188.089844 1.46875 C 233.542969 2.195312 273.988281 17.285156 308.957031 47.074219 C 336.054688 70.152344 355.53125 98.292969 365.898438 132.398438 C 373.085938 156.023438 374.988281 180.238281 372.164062 204.769531 C 367.292969 247.039062 349.40625 283.125 319.03125 312.699219 C 289.953125 341.035156 255.160156 358.519531 214.792969 364.800781 C 135.566406 377.144531 62.878906 335.265625 27.832031 276.984375 C 14.089844 254.082031 6.234375 229.257812 4.054688 202.707031 C 0.0117188 153.453125 12.476562 108.929688 43.796875 70.328125 C 72.519531 34.945312 109.589844 13.125 154.355469 4.453125 C 165.351562 2.3125 176.484375 1.703125 188.089844 1.46875 Z M 188.089844 1.46875 " fill-opacity="1" fill-rule="nonzero"/><path fill="#70ab95" d="M 207.644531 317.25 C 208.488281 315.542969 210.097656 315.464844 211.691406 315.425781 C 213.59375 315.386719 215.5 315.484375 217.363281 315.308594 C 221.566406 314.917969 223.019531 313.050781 222.136719 308.734375 C 221.625 306.261719 222.078125 305.554688 224.628906 306.320312 C 227.515625 307.203125 229.8125 306.105469 231.992188 304.003906 C 235.488281 300.667969 238.175781 296.863281 239.863281 292.367188 C 241.925781 286.894531 245.578125 282.988281 250.839844 280.359375 C 256.398438 277.574219 260.835938 273.472656 264.171875 268.152344 C 267.214844 263.304688 268.453125 258.144531 267.273438 252.492188 C 266.804688 250.257812 267.511719 248.765625 269.375 247.390625 C 276.582031 242.074219 279.351562 234.8125 277.777344 226.082031 C 276.246094 217.621094 266.648438 211.1875 258.164062 212.636719 C 254.21875 213.324219 250.429688 213.128906 246.875 211.027344 C 244.675781 209.734375 242.320312 208.734375 239.746094 208.8125 C 238.15625 208.851562 238.15625 207.988281 238 206.867188 C 236.664062 197.566406 230.144531 191.777344 220.722656 192.054688 C 215.480469 192.210938 211.199219 191.050781 207.234375 187.421875 C 203.148438 183.695312 198.671875 180.238281 192.683594 179.867188 C 190.328125 179.710938 187.933594 179.808594 185.949219 180.984375 C 183.277344 182.574219 180.824219 182.242188 178.191406 181.082031 C 172.324219 178.53125 166.3125 178.925781 160.265625 180.339844 C 157.597656 180.964844 155.671875 182.300781 154.925781 185.066406 C 154.160156 187.875 152.433594 188.875 149.507812 188.34375 C 147.132812 187.914062 144.777344 188.128906 142.417969 189.128906 C 139.375 190.425781 136.941406 188.167969 137.648438 184.910156 C 138.058594 183.066406 138.667969 181.28125 138.628906 179.355469 C 138.550781 175.136719 136.507812 172.722656 132.386719 171.898438 C 129.992188 171.429688 127.59375 171.292969 125.160156 171.3125 C 123.804688 171.332031 123.15625 171.015625 123.921875 169.464844 C 125.003906 167.269531 125.613281 164.953125 125.414062 162.460938 C 125.375 161.890625 125.101562 160.988281 126.121094 161.125 C 130.914062 161.714844 135.546875 158.632812 140.417969 160.558594 C 142.949219 161.558594 145.582031 162.285156 147.78125 163.855469 C 146.71875 164.777344 145.601562 165.5625 144.714844 166.542969 C 143.929688 167.40625 143.421875 168.464844 144.207031 169.703125 C 144.992188 170.9375 146.109375 171.410156 147.445312 171.074219 C 151.921875 169.957031 154.886719 166.796875 157.261719 163.167969 C 158.402344 161.421875 157.398438 159.398438 155.59375 158.691406 C 149.332031 156.300781 144.167969 151.609375 137 150.136719 C 140.984375 145.898438 140.867188 141.167969 139.453125 136.164062 C 138.746094 133.652344 139.632812 131.730469 142.066406 130.433594 C 144.65625 129.0625 147.074219 127.375 149.625 125.902344 C 152.394531 124.292969 153.355469 121.898438 152.453125 118.957031 C 151.902344 117.128906 152.628906 116.324219 153.90625 115.324219 C 158.714844 111.617188 164.054688 108.496094 167.828125 103.570312 C 168.453125 102.746094 168.710938 103.019531 169.457031 103.570312 C 172.695312 105.945312 181.765625 103.335938 183.238281 99.703125 C 184.0625 97.664062 182.769531 96.347656 181.296875 95.5625 C 178.980469 94.328125 179.3125 93.011719 180.589844 91.34375 C 181.84375 89.695312 183.0625 87.988281 185.222656 87.242188 C 183.535156 94.820312 183.535156 94.820312 191.289062 93.5625 C 193.664062 93.171875 196.0625 92.816406 198.417969 92.347656 C 199.96875 92.03125 201.125 91.089844 201.5 89.519531 C 201.890625 87.792969 200.714844 86.773438 199.496094 85.929688 C 198.652344 85.339844 197.691406 84.851562 196.726562 84.457031 C 194.667969 83.59375 192.230469 83.457031 193.664062 79.824219 C 194.527344 77.648438 192.742188 75.664062 190.25 75 C 189.738281 74.863281 189.167969 74.664062 188.699219 74.800781 C 182.589844 76.53125 180.253906 71.839844 177.347656 68.128906 C 176.976562 67.660156 176.542969 66.621094 176.71875 66.480469 C 179.117188 64.324219 177.78125 61.4375 178.332031 58.945312 C 178.878906 56.53125 178.585938 54.316406 176.640625 52.589844 C 173.539062 49.800781 170.632812 46.742188 166.570312 45.308594 C 169.0625 42.109375 172.144531 41.777344 175.640625 43.167969 C 175.933594 43.285156 176.464844 43.265625 176.523438 43.445312 C 177.957031 47.820312 183.375 48.015625 185.320312 51.84375 C 188.050781 57.257812 192.546875 60.753906 197.828125 63.421875 C 199.144531 64.089844 200.558594 64.5 202.070312 64.480469 C 205.996094 64.441406 208.449219 62.402344 207.585938 58.652344 C 206.367188 53.394531 208.644531 51.175781 213.023438 49.449219 C 216.855469 47.9375 217.894531 44.621094 216.1875 40.285156 C 215.339844 38.125 214.613281 35.988281 214.144531 33.710938 C 213.203125 29.296875 209.253906 28.746094 205.878906 28.117188 C 201.992188 27.390625 197.945312 27.097656 194 28.355469 C 193.332031 28.570312 192.488281 28.667969 191.820312 28.472656 C 188.226562 27.410156 185.183594 28.6875 182.355469 30.6875 C 181.078125 31.589844 180.15625 31.847656 178.839844 30.628906 C 177.585938 29.453125 175.953125 29.375 174.128906 29.609375 C 167.925781 30.394531 161.855469 31.199219 156.792969 35.457031 C 155.003906 36.949219 152.433594 36.851562 150.195312 37.398438 C 148.664062 37.773438 147.367188 38.144531 147.25 40.050781 C 147.191406 40.992188 146.542969 41.699219 145.601562 41.640625 C 144.480469 41.558594 145.03125 40.539062 144.894531 39.890625 C 144.007812 35.832031 136.058594 32.886719 132.816406 35.417969 C 131.03125 36.832031 132.425781 37.988281 133.09375 39.207031 L 133.09375 39.519531 L 132.777344 39.519531 C 127.4375 35.535156 125.867188 35.554688 120.917969 40.167969 C 119.289062 41.679688 117.855469 42.148438 115.617188 41.519531 C 113.675781 40.972656 111.417969 41.050781 109.375 41.324219 C 106.683594 41.699219 105.722656 40.558594 105.625 38.144531 C 105.488281 36.695312 106.546875 36.085938 107.585938 35.671875 C 111.316406 34.164062 114.832031 32.082031 118.757812 31.023438 C 119.527344 30.886719 120.3125 30.804688 121.039062 30.511719 C 128.144531 28.273438 135.175781 25.863281 141.929688 22.703125 C 143.046875 22.074219 144.480469 24.585938 145.421875 22.328125 C 147.523438 20.777344 150.117188 20.542969 152.492188 19.757812 C 163.917969 15.992188 175.464844 13.714844 187.5 13.558594 C 197.90625 13.421875 208.292969 13.203125 218.484375 15.636719 C 227.691406 17.835938 236.898438 19.992188 246.167969 21.878906 C 246.894531 22.035156 247.621094 22.191406 248.113281 22.820312 C 248.230469 26.546875 249.171875 27.746094 252.726562 28.332031 C 256.140625 28.882812 259.578125 29.355469 263.015625 29.746094 C 265.488281 30.023438 267.492188 30.628906 267.117188 33.789062 C 267.058594 34.378906 267.292969 34.988281 267.472656 35.929688 C 263.015625 34.535156 258.65625 34.789062 254.316406 35.496094 C 247.953125 36.535156 245.914062 40.285156 248.640625 46.09375 C 249.484375 47.898438 249.644531 49.683594 249.523438 51.585938 C 249.152344 57.75 252.648438 61.871094 258.851562 62.460938 C 260.757812 62.636719 260.324219 64.109375 260.675781 65.1875 C 260.65625 66.519531 260.875 67.992188 258.890625 68.148438 C 257.046875 67.835938 255.613281 66.933594 254.433594 65.460938 C 253.039062 63.734375 251.410156 62.242188 249.503906 61.085938 C 247.71875 59.988281 245.773438 59.339844 243.851562 60.457031 C 241.90625 61.617188 241.476562 63.695312 241.847656 65.738281 C 242.222656 67.757812 242.082031 69.425781 241.003906 71.289062 C 239.886719 73.195312 240.179688 75.351562 241.964844 77.039062 C 244.046875 79.003906 246.5 79.6875 248.800781 77.941406 C 251.703125 75.726562 252.410156 77.253906 253.375 79.765625 C 254.140625 81.769531 254.492188 83.925781 258.105469 83.925781 C 260.363281 83.925781 262.621094 87.222656 265.332031 89.402344 C 261.738281 90.109375 258.675781 90.460938 255.75 91.503906 C 252.175781 92.796875 251.058594 94.542969 252.449219 97.9375 C 254.472656 102.824219 257.457031 107.632812 261.484375 110.578125 C 264.367188 112.675781 264.664062 113.894531 263.839844 116.621094 C 263.601562 117.386719 263.78125 118.289062 263.878906 119.132812 C 264.269531 122.800781 263.761719 126.078125 261.128906 129.0625 C 259.027344 131.457031 258.378906 134.675781 258.164062 137.871094 C 257.554688 146.820312 259.460938 155.417969 261.914062 163.914062 C 263.191406 168.347656 265.902344 171.742188 270.378906 173.46875 C 272.417969 174.253906 273.929688 175.628906 275.148438 177.414062 C 276.050781 178.710938 277.011719 179.964844 278.054688 181.144531 C 282.433594 186.128906 287.65625 188.265625 294.390625 186.578125 C 300.515625 185.027344 306.621094 183.574219 311.882812 179.828125 C 312.789062 179.179688 313.828125 178.199219 314.554688 180.0625 C 315.988281 183.476562 315.871094 187.246094 316.988281 190.738281 C 318.796875 196.332031 320.347656 202.003906 320.777344 207.871094 C 321.230469 213.894531 322.347656 219.917969 321.113281 226.003906 C 320.898438 227.023438 320.957031 228.101562 320.191406 228.925781 C 316.949219 230.496094 313.414062 230.96875 309.941406 231.691406 C 305.757812 232.574219 301.636719 233.675781 297.492188 234.695312 C 303.539062 233.558594 309.527344 232.125 315.476562 230.574219 C 316.851562 230.222656 318.226562 229.496094 319.71875 230.003906 C 320.640625 231.417969 320.050781 232.871094 319.757812 234.285156 C 317.914062 243.113281 316.441406 252.023438 315.183594 260.972656 C 313.730469 271.292969 308.761719 279.945312 302.363281 287.914062 C 300.613281 289.835938 298.140625 290.113281 295.84375 290.738281 C 289.679688 292.449219 283.453125 293.917969 277.113281 294.878906 C 283.082031 294.332031 288.871094 292.976562 294.644531 291.40625 C 295.84375 291.074219 297 290.464844 298.316406 290.917969 C 299.554688 292.210938 298.238281 292.996094 297.648438 293.800781 C 293.703125 299.121094 288.65625 303.160156 282.824219 306.242188 C 276.285156 309.695312 269.179688 311.640625 262.386719 314.40625 C 253 318.234375 243.144531 319.644531 233.148438 319.902344 C 225.925781 320.078125 218.71875 319.15625 211.511719 318.46875 C 210.179688 318.371094 208.785156 318.132812 207.644531 317.25 Z M 207.644531 317.25 " fill-opacity="1" fill-rule="nonzero"/><path fill="#70ab95" d="M 13.480469 143.40625 C 15.304688 132.671875 19.152344 122.585938 23.53125 112.675781 C 24.808594 109.8125 26.242188 107.003906 27.695312 103.964844 C 31.171875 108.515625 31.308594 114.65625 35.449219 118.640625 C 35.332031 114.167969 33.742188 110.125 31.582031 106.496094 C 29.207031 102.53125 29.660156 99.488281 32.074219 95.703125 C 39.199219 84.476562 46.800781 73.683594 56.007812 64.046875 C 57.304688 62.695312 58.304688 61.792969 60.289062 63.460938 C 62.761719 65.519531 65.472656 64.148438 67.964844 62.910156 C 68.710938 62.539062 69.378906 62.007812 70.046875 61.496094 C 73.816406 58.710938 76.546875 58.300781 78.488281 60.261719 C 79.960938 61.734375 79.804688 67.894531 78.078125 70.113281 C 76.859375 71.683594 75.347656 73.015625 74.03125 74.527344 C 73.011719 75.726562 71.5 76.902344 71.265625 78.277344 C 70.378906 83.222656 66.769531 85.910156 63.390625 88.851562 C 59.582031 92.167969 56.402344 95.761719 55.792969 101.117188 C 55.636719 102.472656 54.652344 103.824219 53.808594 105.003906 C 50.332031 109.851562 48.941406 115.421875 47.976562 121.132812 C 47.46875 124.175781 48.878906 126.628906 51.433594 128.003906 C 54.28125 129.550781 54.203125 131.710938 53.808594 134.359375 C 52.867188 140.601562 54.4375 146.25 58.519531 151.078125 C 59.777344 152.570312 61.132812 154.511719 63.371094 154.101562 C 65.492188 153.707031 65.667969 151.414062 66.238281 149.488281 C 68.496094 152.21875 70.183594 154.925781 69.691406 158.476562 C 68.769531 165.070312 72.226562 169.40625 77.429688 172.429688 C 84.574219 176.589844 92.253906 179.355469 100.695312 179.394531 C 102.050781 179.394531 103.425781 179.179688 104.703125 179.925781 C 109.984375 182.96875 115.617188 185.261719 121.273438 187.558594 C 123.335938 188.402344 124.945312 189.972656 126.535156 191.523438 C 130.109375 194.9375 134.289062 197.253906 139.160156 198.253906 C 142.871094 199.019531 148.839844 197.429688 149.132812 192.289062 C 149.546875 194.46875 149.859375 195.996094 150.136719 197.507812 C 150.429688 199.15625 150.566406 200.84375 151 202.472656 C 151.960938 206.066406 151.019531 208.851562 147.9375 210.96875 C 145.914062 212.363281 144.363281 214.207031 143.085938 216.289062 C 139.433594 222.273438 139.023438 228.335938 142.8125 234.421875 C 146.972656 241.113281 151.195312 247.765625 155.398438 254.4375 C 157.597656 257.910156 160.71875 260.34375 164.273438 262.285156 C 166.394531 263.445312 168.453125 264.699219 170.59375 265.835938 C 176.640625 269.074219 179.058594 274.433594 179.921875 280.96875 C 180.6875 286.796875 179.980469 292.488281 179.527344 298.257812 C 179.097656 304.003906 178.292969 309.8125 180.746094 315.367188 C 171.476562 316.503906 162.289062 318.449219 152.964844 318.605469 C 145.265625 318.722656 137.765625 316.761719 130.558594 313.855469 C 126.554688 312.246094 122.449219 310.953125 118.289062 309.773438 C 105.996094 306.164062 93.6875 302.671875 81.121094 300.042969 C 71.164062 297.960938 62.449219 293.210938 54.574219 286.835938 C 47.289062 280.949219 40.457031 274.609375 34.097656 267.722656 C 30.367188 262.324219 26.417969 257.027344 23.945312 250.863281 C 19.292969 239.167969 15.71875 227.160156 13.695312 214.71875 C 13.382812 212.738281 12.949219 210.753906 14.738281 209.183594 C 16.738281 208.832031 17.152344 210.539062 17.859375 211.714844 C 20.664062 216.445312 23.628906 221.019531 27.675781 223.941406 C 22.964844 219.78125 19.839844 213.582031 15.5625 208.28125 C 13.949219 200.570312 13.046875 192.78125 11.96875 184.988281 C 10.023438 171.035156 11.457031 157.222656 13.480469 143.40625 Z M 13.480469 143.40625 " fill-opacity="1" fill-rule="nonzero"/><path fill="#f0ab7e" d="M 213.929688 336.128906 C 209.609375 335.953125 206.09375 335.660156 202.636719 334.578125 C 197.511719 332.988281 193.664062 330.125 191.917969 324.828125 C 191.054688 322.195312 189.679688 319.800781 187.636719 317.917969 C 183.789062 314.40625 182.75 309.972656 183.023438 305.046875 C 183.414062 298.117188 184.457031 291.25 184.261719 284.265625 C 183.964844 273.863281 180.292969 265.601562 170.339844 261.148438 C 163.507812 258.085938 158.714844 253.199219 155.339844 246.527344 C 153.121094 242.152344 150.15625 238.128906 147.425781 234.007812 C 142.773438 227.042969 143.753906 219.566406 150.488281 214.5625 C 154.730469 211.421875 156.222656 207.515625 155.359375 202.492188 C 155.082031 200.941406 154.847656 199.390625 154.515625 197.84375 C 153.828125 194.625 153.609375 191.640625 157.007812 189.621094 C 157.753906 189.167969 158.5 188.207031 158.65625 187.363281 C 159.226562 183.890625 161.898438 183.773438 164.488281 183.398438 C 169.632812 182.652344 174.582031 183.261719 179.136719 185.851562 C 180.882812 186.832031 182.414062 187.03125 184.121094 186.007812 C 190.582031 182.144531 196.375 183.515625 201.734375 188.246094 C 202.363281 188.796875 203.207031 189.128906 203.777344 189.738281 C 208.625 195.074219 214.554688 196.605469 221.683594 196.15625 C 229.046875 195.683594 234.621094 202.925781 233.601562 210.382812 C 233.40625 211.753906 232.640625 213.285156 234.289062 214.40625 C 235.859375 215.484375 236.78125 214.207031 237.902344 213.519531 C 239.765625 212.382812 241.730469 212.875 243.28125 213.914062 C 248.347656 217.367188 253.804688 217.542969 259.617188 216.738281 C 266.585938 215.757812 273.675781 221.980469 273.949219 229.0625 C 274.1875 235.265625 271.910156 240.425781 266.882812 244.113281 C 263.839844 246.351562 262.523438 249.019531 263.113281 252.769531 C 264.664062 262.875 259.304688 269.546875 251.703125 274.960938 C 249.742188 276.355469 247.601562 277.515625 245.519531 278.75 C 241.398438 281.222656 238.550781 284.734375 236.722656 289.171875 C 235.074219 293.152344 233.328125 297.078125 230.183594 300.21875 C 228.261719 302.121094 226.316406 303.0625 223.46875 302.769531 C 217.71875 302.179688 216.992188 303.042969 218.226562 308.597656 C 218.757812 310.953125 218.128906 311.894531 215.734375 311.894531 C 213.847656 311.894531 211.945312 312.128906 210.058594 312.265625 C 205.152344 312.621094 202.285156 316.25 202.558594 321.214844 C 202.675781 323.21875 202.675781 325.375 202.421875 327.238281 C 201.988281 330.4375 203.5625 331.832031 205.722656 332.929688 C 208.136719 334.128906 210.746094 334.894531 213.929688 336.128906 Z M 213.929688 336.128906 " fill-opacity="1" fill-rule="nonzero"/><path fill="#c0ca7f" d="M 120.917969 165.011719 C 120.3125 166.679688 119.566406 168.308594 119.113281 170.015625 C 118.347656 172.980469 119.40625 174.804688 122.410156 175.292969 C 124.886719 175.6875 127.4375 175.511719 129.953125 175.667969 C 133.722656 175.921875 134.722656 177.199219 134.230469 180.945312 C 134.210938 181.164062 134.171875 181.359375 134.132812 181.574219 C 132.542969 190.503906 134.289062 192.820312 143.8125 193.664062 C 142.203125 195.132812 140.652344 194.722656 139.316406 194.449219 C 135.902344 193.761719 133.191406 191.699219 130.71875 189.382812 C 127.28125 186.167969 123.394531 183.792969 118.976562 182.203125 C 115.324219 180.886719 111.769531 179.296875 108.433594 177.277344 C 105.957031 175.765625 103.25 175.097656 100.324219 175.15625 C 92.960938 175.292969 86.304688 172.683594 79.980469 169.269531 C 75.722656 166.972656 73.070312 163.617188 73.972656 158.242188 C 74.71875 153.769531 72.207031 150.292969 69.339844 147.3125 C 66.375 144.210938 64.765625 140.855469 65.394531 136.519531 C 65.824219 133.476562 64.097656 131.515625 61.859375 129.964844 C 59.265625 128.179688 56.558594 126.550781 53.867188 124.941406 C 52.316406 124.019531 51.707031 122.78125 52.023438 120.996094 C 52.808594 116.523438 53.769531 112.125 56.558594 108.378906 C 58.34375 105.984375 59.679688 103.355469 60.113281 100.390625 C 60.484375 97.722656 61.839844 95.703125 63.722656 93.933594 C 65.746094 92.089844 67.730469 90.1875 69.851562 88.460938 C 72.363281 86.417969 74.40625 84.222656 74.835938 80.769531 C 75.113281 78.550781 76.996094 77.175781 78.605469 75.863281 C 83.691406 71.703125 84.320312 66.34375 83.105469 60.417969 C 82.515625 57.59375 77.902344 54.707031 74.996094 55.316406 C 74.011719 55.511719 73.050781 55.867188 71.558594 56.296875 C 72.894531 51.902344 75.054688 48.78125 78.980469 47.171875 C 80.472656 46.5625 81.925781 46.074219 82.378906 44.308594 C 84.261719 44.445312 86.167969 44.976562 88.011719 44.132812 C 88.738281 44.191406 89.445312 46.703125 90.171875 44.132812 C 91.113281 42.128906 93.039062 41.578125 94.902344 41.050781 C 96.964844 40.441406 98.734375 39.558594 99.558594 37.417969 C 101.636719 37.359375 101.226562 39.34375 101.71875 40.363281 C 103.835938 44.777344 104.976562 45.71875 109.6875 45.113281 C 113.65625 44.601562 116.679688 46.09375 119.289062 48.78125 C 123.84375 53.453125 129.363281 54.453125 135.546875 53.335938 C 138.824219 52.726562 141.359375 51 143.402344 48.46875 C 144.773438 46.761719 146.347656 45.523438 149.371094 45.464844 C 146.328125 47.703125 143.792969 49.664062 144.324219 53.453125 C 144.894531 57.515625 148.644531 57.925781 151.234375 59.671875 C 150.726562 60.929688 149.800781 60.261719 149.09375 60.144531 C 141.574219 58.964844 135.839844 62.144531 131.03125 67.542969 C 130.050781 68.640625 129.460938 69.996094 129.027344 71.425781 C 127.183594 77.511719 129.460938 80.335938 135.742188 79.667969 C 136.371094 79.609375 137 79.492188 137.609375 79.375 C 142.378906 78.511719 142.417969 78.492188 143.597656 83.144531 C 144.007812 84.730469 144.753906 86.027344 145.875 87.203125 C 147.25 88.636719 148.878906 89.441406 150.625 88.1875 C 152.492188 86.832031 152.277344 84.929688 151.195312 83.101562 C 150.902344 82.59375 150.46875 82.140625 149.800781 81.296875 C 155.59375 80.925781 157.066406 77.078125 157.8125 72.566406 C 157.929688 71.839844 158.066406 71.113281 158.265625 70.40625 C 158.773438 68.601562 158.007812 65.402344 160.167969 65.34375 C 162.542969 65.285156 165.546875 65.71875 167.316406 68.328125 C 169.0625 70.878906 170.929688 73.46875 174.757812 71.625 C 175.679688 71.171875 175.972656 72.25 176.289062 72.839844 C 178.566406 77.078125 181.53125 79.945312 186.890625 78.511719 C 187.753906 78.277344 188.992188 78.375 189.246094 79.472656 C 189.464844 80.453125 188.1875 80.570312 187.617188 81.140625 C 184.398438 84.261719 180.371094 84.949219 176.113281 85.398438 C 171.417969 85.890625 167.589844 88.226562 164.703125 92.011719 C 164.253906 92.601562 163.78125 93.191406 163.488281 93.835938 C 163.074219 94.699219 162.78125 95.78125 163.761719 96.40625 C 164.683594 96.996094 165.3125 96.113281 165.824219 95.464844 C 168.730469 91.71875 172.675781 89.773438 177.585938 88.695312 C 176.464844 90.597656 175.070312 92.070312 175.328125 94.210938 C 175.582031 96.269531 177.210938 97.332031 178.546875 98.800781 C 175.914062 100.449219 173.558594 102.078125 170.8125 99.019531 C 169.613281 97.683594 167.828125 97.820312 166.648438 99.292969 C 162.132812 104.828125 156.222656 108.75 150.683594 113.089844 C 148.566406 114.757812 147.621094 116.972656 148.347656 119.503906 C 148.878906 121.371094 148.113281 122.3125 146.816406 123.136719 C 145.226562 124.15625 143.578125 125.078125 141.910156 126 C 135.292969 129.652344 134.269531 131.90625 135.882812 139.324219 C 136.390625 141.71875 136.84375 144.113281 134.703125 146.152344 C 133.367188 145.308594 133.484375 143.800781 133.054688 142.621094 C 131.089844 137.34375 125.433594 134.535156 120.566406 137.363281 C 115.914062 140.070312 111.199219 140.421875 106.09375 140.464844 C 96.296875 140.542969 89.878906 147.839844 90.585938 157.574219 C 90.917969 162.402344 94.257812 166.933594 99.085938 168.25 C 104.191406 169.644531 109.296875 169.839844 113.378906 165.445312 C 114.382812 164.363281 115.5 163.421875 116.542969 162.402344 C 118.152344 163.050781 120.488281 162.480469 120.917969 165.011719 Z M 120.917969 165.011719 " fill-opacity="1" fill-rule="nonzero"/><path fill="#f1ac7f" d="M 329.574219 279.789062 C 328.121094 280.832031 326.964844 283.34375 324.941406 282.105469 C 322.722656 280.75 323.683594 278.21875 324.585938 276.394531 C 328.457031 268.546875 328.945312 260.363281 327.984375 251.828125 C 327.21875 245.035156 328.398438 238.484375 331.421875 232.222656 C 335.839844 223.078125 336.113281 213.757812 331.5 204.613281 C 328.417969 198.488281 327.652344 192.015625 327.808594 185.34375 C 327.867188 182.910156 327.90625 180.515625 326.746094 178.257812 C 325.234375 175.3125 323.585938 174.726562 320.757812 176.335938 C 319.363281 177.140625 318.109375 177.628906 316.792969 176.257812 C 314.949219 174.351562 313.003906 174.863281 311.097656 176.160156 C 306.152344 179.476562 300.710938 181.457031 294.902344 182.832031 C 288.773438 184.28125 284.042969 182.574219 280.449219 177.765625 C 277.621094 174 274.65625 170.703125 270.0625 168.976562 C 267.433594 167.996094 266.195312 165.484375 265.566406 162.851562 C 264.054688 156.632812 262.289062 150.472656 261.855469 144.054688 C 261.484375 138.675781 262.050781 133.59375 265.761719 129.257812 C 268.160156 126.453125 268.21875 122.957031 267.53125 119.640625 C 266.824219 116.246094 268.097656 113.851562 270.476562 111.871094 C 275.835938 107.417969 282.019531 104.6875 288.953125 103.6875 C 289.894531 103.550781 290.855469 103.570312 291.757812 103.316406 C 294.429688 102.550781 296.472656 102.921875 297.53125 105.867188 C 297.785156 106.59375 298.53125 107.515625 299.21875 107.652344 C 304.1875 108.710938 309.351562 110.476562 314.101562 107.554688 C 316.910156 105.847656 319.324219 105.199219 322.269531 106.632812 C 325.492188 108.203125 328.574219 107.867188 331.519531 105.90625 C 333.660156 109.535156 334.582031 113.695312 336.644531 117.367188 C 340.648438 124.527344 344.105469 131.945312 346.792969 139.738281 C 349.152344 146.585938 349.957031 153.589844 350.25 160.773438 C 350.644531 170.839844 351.074219 180.90625 351.429688 190.972656 C 351.488281 192.640625 351.585938 194.367188 350.503906 195.839844 C 349.367188 196.898438 349.503906 198.292969 349.5625 199.648438 C 349.757812 205.496094 349.484375 211.304688 348.089844 217.015625 C 347.070312 219.054688 348.109375 221.15625 347.894531 223.214844 C 347.363281 228.335938 346.519531 233.417969 344.96875 238.34375 C 342.316406 246.746094 340.746094 255.457031 337.429688 263.679688 C 335.152344 269.234375 332.382812 274.511719 329.574219 279.789062 Z M 329.574219 279.789062 " fill-opacity="1" fill-rule="nonzero"/><path fill="#416b73" d="M 24.847656 250.945312 C 26.871094 256.261719 30.304688 260.753906 33.429688 265.425781 C 33.839844 266.035156 34.371094 266.542969 34.429688 267.328125 C 39.261719 276.867188 46.898438 283.773438 55.515625 289.738281 C 58.1875 291.582031 60.621094 293.761719 63.410156 295.46875 C 64.429688 296.097656 65.195312 296.941406 65.511719 298.117188 C 69.457031 303.457031 74.660156 306.457031 81.355469 306.753906 C 87.738281 308.007812 93.3125 311.109375 98.773438 314.40625 C 103.070312 316.996094 107.3125 319.683594 111.160156 322.941406 C 114.8125 326.042969 119.386719 327.476562 123.472656 329.8125 C 126.691406 332.5 130.699219 332.910156 134.585938 333.617188 C 140.042969 334.617188 145.523438 335.226562 151.078125 334.207031 C 165.628906 335.597656 180.15625 336.992188 194.785156 336.402344 C 196.160156 336.34375 197.335938 337.464844 198.730469 336.875 C 201.929688 337.835938 205.152344 338.679688 208.46875 339.152344 C 212.296875 339.679688 215.773438 339.113281 218.835938 336.660156 C 219.464844 336.148438 220.328125 335.578125 219.996094 334.617188 C 219.738281 333.890625 218.894531 333.8125 218.148438 333.617188 C 215.617188 332.988281 213.042969 332.421875 210.609375 331.539062 C 208.625 330.8125 206.152344 330.300781 206.269531 327.320312 C 206.386719 324.316406 209.3125 325.925781 210.550781 324.746094 C 211.828125 323.804688 213.300781 323.726562 214.753906 324.003906 C 219.699219 324.984375 224.53125 324.101562 229.359375 323.117188 C 230.96875 322.785156 232.640625 322.234375 234.132812 323.53125 C 233.128906 324.984375 233.128906 325.0625 234.996094 325.121094 C 239.296875 325.257812 243.476562 324.746094 247.347656 322.648438 C 250.625 321.648438 254.316406 322.824219 257.398438 320.707031 C 267.019531 320.667969 276.285156 318.390625 285.574219 316.25 C 284.828125 316.230469 284.121094 316.425781 283.375 316.328125 C 280.332031 315.132812 279.957031 314.5625 280.824219 311.542969 C 281.195312 310.207031 281.117188 308.617188 282.414062 307.636719 C 283.21875 308.007812 284.101562 307.910156 284.867188 307.675781 C 290.757812 305.890625 296.824219 304.613281 302.421875 301.925781 C 296.726562 304.417969 290.679688 305.8125 284.789062 307.65625 C 284.140625 307.851562 283.355469 308.066406 282.667969 307.617188 C 282.117188 306.773438 282.316406 306.027344 282.882812 305.300781 C 289.304688 301.925781 294.507812 297.15625 298.652344 291.230469 C 298.945312 289.425781 300.96875 289.71875 301.851562 288.601562 C 302.105469 288.265625 302.617188 288.265625 302.871094 287.894531 C 302.421875 287.972656 302.066406 287.816406 301.773438 287.464844 C 309.136719 278.160156 313.964844 267.839844 315.125 255.847656 C 315.890625 247.960938 317.558594 240.191406 319.226562 232.4375 C 319.40625 231.632812 319.425781 230.789062 319.503906 229.945312 C 319.128906 229.613281 319.128906 229.238281 319.425781 228.847656 C 320.9375 226.414062 320.660156 223.53125 320.601562 220.996094 C 320.40625 212.265625 319.972656 203.511719 317.265625 195.035156 C 315.714844 190.1875 314.101562 185.28125 314.535156 180.042969 C 316.773438 181.28125 318.992188 181.023438 321.171875 179.90625 C 322.878906 179.023438 323.664062 179.632812 324.058594 181.378906 C 324.566406 183.554688 324.566406 185.773438 324.46875 187.972656 C 324.15625 194.507812 325.394531 200.6875 328.320312 206.574219 C 332.34375 214.699219 331.734375 222.824219 327.925781 230.847656 C 324.253906 238.582031 323.390625 246.664062 324.410156 255.125 C 325.136719 261.207031 324.882812 267.308594 322.054688 273 C 320.917969 275.316406 320.621094 277.808594 320.699219 280.359375 C 320.757812 282.617188 321.523438 284.480469 323.585938 285.558594 C 325.648438 286.640625 327.199219 285.34375 328.75 284.265625 C 337.761719 278.023438 344.300781 269.605469 349.898438 260.363281 C 350.113281 260.007812 350.386719 259.714844 350.820312 259.5 C 349.308594 264.050781 346.871094 268.152344 344.457031 272.234375 C 335.035156 288.207031 323.09375 302.140625 309.703125 314.917969 C 306.074219 318.390625 302.125 319.546875 297.570312 319.566406 C 293.976562 319.566406 291.03125 321.097656 288.246094 322.941406 C 283.667969 325.984375 279.09375 328.847656 273.460938 329.59375 C 270.945312 329.929688 268.6875 331.28125 266.585938 332.675781 C 253.15625 341.703125 238.960938 349.101562 223.15625 353.042969 C 220.644531 353.671875 218.679688 354.652344 219.976562 357.8125 C 220.425781 358.914062 219.523438 359.148438 218.855469 359.226562 C 211.335938 360.246094 203.796875 361.207031 195.707031 362.25 C 197.238281 359.636719 199.457031 358.8125 200.871094 357.164062 C 201.597656 356.320312 202.226562 355.535156 201.890625 354.359375 C 201.558594 353.183594 200.539062 353.28125 199.59375 353.105469 C 194.058594 352.082031 188.460938 352.730469 182.90625 352.574219 C 177.015625 352.398438 171.105469 352.710938 165.214844 352.496094 C 157.242188 352.199219 149.625 354.378906 141.871094 355.457031 C 140.476562 355.65625 139.238281 355.714844 137.863281 355.300781 C 114.441406 348.238281 93.253906 336.972656 74.070312 321.785156 C 53.535156 305.535156 37.355469 285.792969 25.730469 262.34375 C 24.199219 259.265625 22.570312 256.183594 21.6875 252.789062 C 22.277344 251.492188 22.902344 250.121094 24.847656 250.945312 Z M 24.847656 250.945312 " fill-opacity="1" fill-rule="nonzero"/><path fill="#d78964" d="M 349.855469 195.3125 C 351.25 191.347656 350.601562 187.226562 350.308594 183.242188 C 350.09375 180.21875 349.996094 177.199219 349.855469 174.175781 C 349.464844 165.207031 349.816406 156.160156 347.914062 147.351562 C 345.96875 138.304688 342.335938 129.847656 337.898438 121.722656 C 335.171875 116.71875 332.167969 111.753906 331.5 105.90625 C 332.714844 104.707031 333.933594 105.082031 335.191406 105.847656 C 338.039062 107.59375 340.15625 109.988281 341.828125 112.871094 C 345.105469 118.523438 348.738281 123.921875 353.46875 128.492188 C 354 129.003906 354.472656 129.691406 355.101562 129.964844 C 361.953125 132.75 362.972656 139.011719 364.308594 145.152344 C 368.453125 164.324219 369.117188 183.675781 367.546875 203.140625 C 367.253906 206.730469 364.621094 209.085938 362.679688 211.792969 C 361.460938 213.5 360.046875 215.070312 358.75 216.71875 C 358.398438 217.191406 357.828125 217.800781 358.417969 218.367188 C 359.105469 219.054688 359.792969 218.566406 360.304688 217.996094 C 361.816406 216.289062 363.328125 214.5625 365.289062 213.167969 C 365.054688 217.878906 365.035156 222.429688 362.835938 226.414062 C 357.886719 235.34375 353.882812 244.683594 349.640625 253.945312 C 345.261719 263.523438 338.84375 271.6875 331.066406 278.789062 C 330.617188 279.203125 330.046875 279.476562 329.535156 279.808594 C 328.867188 278.632812 329.75 277.789062 330.222656 276.925781 C 338.882812 261.519531 342.515625 244.46875 346.441406 227.53125 C 346.972656 225.238281 347.597656 222.667969 346.714844 220.132812 C 346.421875 219.308594 346.441406 218.25 347.167969 217.445312 C 347.246094 217.503906 347.382812 217.542969 347.402344 217.640625 C 347.5 217.917969 347.777344 218.015625 347.816406 217.820312 C 348.445312 214.777344 349.542969 211.8125 349.503906 208.65625 C 349.464844 205.121094 349.777344 201.570312 349.230469 198.039062 C 349.152344 197.078125 349.269531 196.136719 349.855469 195.3125 Z M 349.855469 195.3125 " fill-opacity="1" fill-rule="nonzero"/><path fill="#efab7d" d="M 327.238281 89.992188 C 326.785156 91.933594 325.253906 91.640625 324 91.304688 C 321.367188 90.597656 318.796875 89.695312 316.222656 88.832031 C 315.574219 88.617188 314.691406 88.382812 315.242188 87.324219 C 316.417969 85.066406 314.574219 85.144531 313.316406 84.910156 C 312.511719 84.75 311.648438 84.832031 310.804688 84.890625 C 309.019531 84.988281 307.054688 85.714844 306.601562 87.183594 C 306.074219 88.929688 308.332031 89.460938 309.546875 90.304688 C 311.078125 91.363281 312.945312 91.914062 314.515625 93.523438 C 312.433594 93.757812 311.136719 92.523438 310.019531 91.601562 C 304.5 87.105469 298.179688 84.125 291.816406 81.140625 C 290.777344 80.648438 289.757812 80.082031 288.65625 79.785156 C 287.597656 79.492188 286.476562 79.707031 286.066406 80.945312 C 285.691406 82.042969 286.691406 82.320312 287.359375 82.789062 C 291.25 85.4375 295.449219 87.441406 299.828125 89.226562 C 296.570312 90.109375 293.546875 88.929688 290.503906 88.324219 C 287.832031 87.792969 285.320312 86.617188 282.570312 86.378906 C 278.328125 86.007812 277.09375 87.105469 276.367188 91.285156 C 275.660156 95.367188 273.363281 99.097656 274.027344 103.53125 C 274.265625 105.179688 272.164062 105.59375 270.945312 106.257812 C 265.507812 109.28125 264.878906 109.066406 261.363281 104.140625 C 259.972656 102.175781 258.261719 100.429688 256.789062 98.527344 C 255.335938 96.625 255.101562 95.191406 258.183594 94.757812 C 260.65625 94.40625 263.09375 93.679688 265.527344 93.050781 C 267.351562 92.582031 268.90625 91.679688 269.179688 89.617188 C 269.472656 87.5 268.296875 86.046875 266.726562 84.832031 C 265.074219 83.554688 262.03125 83.59375 261.601562 81.691406 C 261.246094 80.140625 263.132812 78.179688 263.683594 76.3125 C 264.171875 74.605469 264.054688 72.78125 263.722656 70.996094 C 264.074219 69.996094 264.683594 69.367188 265.839844 69.542969 C 272.300781 69.035156 277.859375 65.972656 283.257812 62.851562 C 286.378906 61.046875 285.730469 57.355469 282.492188 55.53125 C 281.429688 54.925781 280.058594 54.84375 278.976562 53.414062 C 280.84375 53.175781 282.6875 53.195312 283.707031 51.589844 C 284.199219 50.804688 285.535156 49.941406 284.0625 49.015625 C 282.941406 48.332031 282.394531 49.292969 281.980469 50.214844 C 281.824219 50.585938 281.589844 50.941406 281.390625 51.3125 C 277.308594 48.371094 275.894531 48.488281 273.792969 51.960938 C 273.125 52.902344 274.753906 54.609375 272.753906 55.082031 C 268.984375 52.550781 265.546875 49.664062 263.40625 45.523438 C 262.796875 44.328125 261.582031 43.835938 260.480469 44.386719 C 258.988281 45.113281 260.246094 46.191406 260.617188 46.996094 C 262.367188 50.742188 264.507812 54.160156 268.335938 56.238281 C 269.75 57.003906 271.203125 57.964844 272.164062 60.046875 C 269.121094 58.613281 266.46875 57.238281 263.503906 56.789062 C 262.089844 56.574219 260.796875 56.59375 259.5 57.140625 C 258.457031 57.59375 257.671875 59.164062 256.21875 57.925781 C 254.667969 56.613281 253.214844 55.296875 253.511719 52.941406 C 253.902344 49.839844 253.492188 46.878906 251.78125 44.191406 C 250.351562 41.914062 251.136719 40.285156 253.492188 39.578125 C 258.242188 38.125 263.035156 38.519531 267.746094 39.929688 C 268.90625 40.285156 269.199219 41.304688 269.730469 42.207031 C 270.867188 44.230469 272.144531 46.132812 274.148438 47.449219 C 275.582031 48.390625 277.132812 48.585938 278.625 47.839844 C 280.015625 47.132812 280.585938 45.699219 278.722656 45.132812 C 275.34375 44.089844 274.363281 41.148438 272.734375 38.65625 C 272.636719 37.480469 273.539062 37.617188 274.167969 37.695312 C 276.386719 37.96875 278.664062 37.8125 280.785156 38.695312 C 281.039062 38.871094 281.253906 39.085938 281.449219 39.324219 C 283.769531 42.304688 286.929688 44.191406 290.1875 45.839844 C 293.386719 47.449219 296.414062 49.3125 299.476562 51.175781 C 301.695312 52.53125 303.207031 54.511719 304.71875 56.550781 C 305.835938 58.0625 306.839844 59.691406 308.332031 60.910156 C 308.644531 61.222656 308.898438 61.597656 309.039062 62.007812 C 308.800781 63.246094 308.820312 64.5 309.117188 65.738281 C 308.859375 67.40625 307.625 68.445312 306.601562 69.621094 C 305.367188 71.054688 305.128906 72.566406 306.054688 74.234375 C 307.367188 76.609375 308.917969 78.84375 310.53125 81.023438 C 311.550781 82.417969 312.828125 82.808594 314.28125 81.632812 C 318.050781 78.589844 322.035156 79.296875 326.058594 80.945312 C 326.824219 83.867188 328.554688 86.714844 327.238281 89.992188 Z M 327.238281 89.992188 " fill-opacity="1" fill-rule="nonzero"/><path fill="#4e7f82" d="M 198.75 336.894531 C 198.398438 337.070312 198.042969 337.386719 197.691406 337.40625 C 185.144531 337.875 172.636719 337.109375 160.148438 336.1875 C 156.929688 335.953125 153.75 335.363281 150.546875 334.933594 C 141.910156 334.636719 133.308594 333.953125 125.023438 331.183594 C 124.238281 330.929688 123.394531 330.773438 122.960938 329.929688 C 117.386719 328.417969 112.730469 325.257812 108.253906 321.804688 C 100.007812 315.464844 91.113281 310.363281 81.179688 307.144531 C 77.722656 307.144531 75.171875 304.890625 72.324219 303.476562 C 69.613281 302.140625 67.121094 300.355469 64.785156 298.394531 C 64.824219 296.628906 63.234375 296.273438 62.191406 295.527344 C 55.320312 290.621094 48.507812 285.675781 42.304688 279.945312 C 38.710938 276.628906 36.902344 272.078125 34.234375 268.113281 C 34.136719 267.957031 34.371094 267.585938 34.449219 267.328125 C 38.0625 270.84375 41.558594 274.492188 45.308594 277.847656 C 55.949219 287.445312 67.003906 296.488281 81.609375 299.335938 C 93.746094 301.691406 105.546875 305.28125 117.425781 308.617188 C 117.601562 308.675781 117.738281 308.890625 117.894531 309.03125 C 118.5625 312.226562 115.953125 312.03125 114.125 312.679688 C 105.722656 311.542969 97.867188 308.773438 90.347656 304.929688 C 90.015625 304.613281 90.605469 304.457031 90.308594 304.75 C 90.25 304.808594 90.308594 304.890625 90.484375 304.988281 C 99.378906 310.402344 109.199219 312.816406 119.445312 313.835938 C 121.117188 313.992188 122.804688 313.953125 124.394531 313.230469 C 132.503906 319.019531 141.851562 320.882812 151.492188 321.863281 C 159.796875 325.945312 168.335938 326.277344 177.074219 323.414062 C 177.703125 323.199219 178.191406 322.882812 178.507812 322.273438 C 180.15625 319.902344 182.433594 319.722656 184.96875 320.371094 C 187.324219 321.921875 188.128906 324.511719 189.011719 326.925781 C 190.757812 331.773438 194.175781 334.875 198.75 336.894531 Z M 198.75 336.894531 " fill-opacity="1" fill-rule="nonzero"/><path fill="#436f75" d="M 142.417969 22.878906 C 140.277344 25.292969 137.058594 25.449219 134.328125 26.625 C 130.050781 28.492188 125.632812 30.0625 121.019531 31.023438 C 118.976562 31.121094 119.035156 28.960938 117.875 28.175781 C 118.113281 29.355469 119.585938 30.140625 119.152344 31.628906 C 114.539062 33.496094 109.648438 34.828125 105.683594 38.066406 C 102.953125 32.769531 101.738281 32.277344 95.945312 34.203125 C 93.511719 35.007812 91.09375 35.910156 88.582031 36.339844 C 140.808594 3.234375 195.902344 -2.355469 254.277344 19.230469 C 252 20.5625 250.054688 21.703125 248.113281 22.839844 C 241.0625 22.464844 234.347656 20.328125 227.554688 18.757812 C 217.855469 16.519531 208.234375 14.617188 198.179688 14.382812 C 181.882812 13.988281 166.058594 15.792969 150.726562 21.308594 C 148.996094 21.9375 146.601562 21.210938 145.601562 23.527344 C 143.8125 23.371094 143.558594 21.40625 142.203125 20.660156 C 142.046875 21.464844 143.125 22.074219 142.417969 22.878906 Z M 142.417969 22.878906 " fill-opacity="1" fill-rule="nonzero"/><path fill="#d58666" d="M 307.976562 61.398438 C 306.898438 60.871094 306.09375 60.046875 305.542969 59.023438 C 302.578125 53.609375 297.6875 50.449219 292.367188 47.839844 C 288.871094 46.113281 285.613281 44.089844 282.492188 41.757812 C 281.628906 41.109375 280.742188 40.558594 280.941406 39.285156 C 281.53125 38.96875 282.414062 39.007812 282.472656 38.007812 C 281.667969 38.105469 281.6875 39.1875 280.921875 39.285156 C 278.191406 38.988281 275.5 38.085938 272.695312 38.617188 C 271.476562 37.105469 271.023438 35.320312 270.710938 33.21875 C 272.574219 33.789062 273.890625 35.710938 275.539062 35.320312 C 277.464844 34.867188 276.347656 32.375 277.347656 31.082031 C 291.957031 35.949219 327.925781 69.171875 338.605469 87.714844 C 337.46875 87.96875 336.761719 86.8125 335.035156 86.792969 C 336.464844 88.832031 338.058594 89.972656 339.921875 90.699219 C 341.042969 91.128906 341.984375 91.582031 342.613281 92.660156 C 349.109375 103.589844 354.492188 115.03125 358.949219 127.609375 C 357.082031 126.765625 356.160156 125.707031 355.257812 124.664062 C 351.859375 120.78125 348.777344 116.660156 346.167969 112.203125 C 343.96875 108.4375 341.472656 104.945312 337.566406 102.765625 C 336.347656 102.097656 336.484375 101.292969 336.546875 100.195312 C 336.820312 95.917969 335.425781 92.308594 331.695312 89.933594 C 330.28125 89.03125 328.671875 88.226562 327.21875 90.011719 C 327.472656 86.8125 325.292969 83.988281 325.746094 80.75 C 325.628906 80.570312 325.453125 80.355469 325.53125 80.179688 C 327.433594 75.097656 324.15625 72.664062 320.523438 70.445312 C 316.871094 68.210938 312.847656 66.71875 308.859375 65.207031 C 307.152344 64.1875 308.054688 63.085938 308.761719 61.988281 C 308.46875 61.378906 308.976562 61.105469 309.273438 60.753906 C 308.78125 60.8125 308.449219 61.261719 307.976562 61.398438 Z M 307.976562 61.398438 " fill-opacity="1" fill-rule="nonzero"/><path fill="#f1ac7f" d="M 173.441406 39.085938 C 178.820312 37.007812 182.984375 34.652344 187.046875 32.101562 C 187.304688 31.945312 187.65625 31.691406 187.894531 31.75 C 193.980469 33.339844 199.988281 29.550781 206.132812 31.550781 C 208.664062 32.375 210.882812 32.945312 210.824219 36.339844 C 210.785156 38.421875 212.789062 39.949219 212.867188 42.1875 C 212.945312 44.464844 212.398438 46.09375 210.179688 46.917969 C 205.015625 48.820312 202.695312 52.3125 203.835938 57.925781 C 204.347656 60.417969 203.148438 61.242188 200.773438 60.359375 C 195.570312 58.398438 191.484375 55.082031 188.875 50.15625 C 187.597656 47.742188 186.339844 45.5625 183.355469 45.113281 C 182.710938 45.015625 182.023438 44.757812 181.84375 44.109375 C 180.824219 40.285156 177.722656 39.558594 173.441406 39.085938 Z M 173.441406 39.085938 " fill-opacity="1" fill-rule="nonzero"/><path fill="#71aa93" d="M 133.820312 150.863281 C 129.402344 151.117188 125.964844 152.726562 123.726562 156.496094 C 123.117188 157.515625 122.175781 157.359375 121.214844 157.164062 C 117.148438 156.28125 114.085938 157.988281 111.496094 160.929688 C 107.921875 164.992188 104.839844 165.914062 100.460938 164.34375 C 96.925781 163.070312 95.003906 160.339844 94.902344 156.417969 C 94.785156 151.375 97.222656 147.117188 101.363281 145.507812 C 104.230469 144.386719 107.292969 144.113281 110.355469 144.269531 C 114.046875 144.464844 117.289062 143.699219 120.46875 141.621094 C 125.0625 138.636719 128.300781 140.128906 129.324219 145.46875 C 129.832031 148.15625 131.304688 149.726562 133.820312 150.863281 Z M 133.820312 150.863281 " fill-opacity="1" fill-rule="nonzero"/><path fill="#4e7f83" d="M 282.902344 305.320312 C 282.882812 306.125 282.863281 306.929688 282.84375 307.734375 L 282.824219 307.753906 C 282.257812 309.578125 281.648438 311.382812 281.136719 313.230469 C 280.585938 315.230469 282.570312 315.074219 283.472656 315.839844 C 282.433594 317.410156 280.664062 317.566406 279.074219 317.898438 C 272.457031 319.273438 265.742188 320.214844 259.085938 321.292969 C 258.578125 321.371094 258.046875 321.390625 257.59375 321.039062 C 256.613281 322.570312 255.257812 323.277344 253.453125 322.921875 C 251.429688 322.511719 249.445312 323.785156 247.445312 322.960938 C 244.066406 324.589844 240.355469 324.511719 236.761719 325.023438 C 235.839844 325.160156 234.878906 324.964844 234.230469 324.101562 C 233.445312 323.355469 232.402344 323.375 231.558594 323.628906 C 224.667969 325.789062 217.660156 325.550781 210.609375 324.765625 C 211.730469 322.804688 210.394531 322.253906 208.921875 321.667969 C 205.9375 320.507812 205.820312 319.980469 207.683594 317.230469 C 210.984375 316.839844 214.203125 317.761719 217.441406 318.054688 C 226.535156 318.898438 235.527344 319.15625 244.636719 317.996094 C 257.734375 316.328125 269.433594 310.558594 281.589844 306.085938 C 282.019531 305.929688 282.453125 305.59375 282.902344 305.320312 Z M 282.902344 305.320312 " fill-opacity="1" fill-rule="nonzero"/><path fill="#4e7b7d" d="M 24.847656 250.945312 C 23.355469 250.90625 22.84375 252.453125 21.648438 252.886719 C 17.660156 244.3125 15.207031 235.246094 12.910156 226.121094 C 8.648438 209.28125 7.707031 192.152344 8.609375 174.941406 C 9.160156 164.324219 10.257812 153.6875 13.480469 143.425781 C 12.910156 152.707031 12.242188 162.007812 11.851562 171.292969 C 11.710938 174.726562 12.164062 178.179688 12.476562 181.613281 C 13.304688 190.207031 15.285156 198.667969 15.875 207.300781 C 15.894531 207.734375 16.445312 208.125 16.738281 208.515625 C 16.445312 209.125 15.894531 209.203125 15.324219 209.242188 C 14.011719 210.617188 14.109375 212.246094 14.402344 213.953125 C 16.5625 226.667969 20.15625 238.953125 24.847656 250.945312 Z M 24.847656 250.945312 " fill-opacity="1" fill-rule="nonzero"/><path fill="#56918f" d="M 184.929688 320.390625 C 183.042969 321.273438 180.550781 320.371094 179.058594 322.375 C 175.582031 324.707031 171.496094 324.984375 167.589844 325.003906 C 162.152344 325.023438 156.753906 324.082031 151.53125 322.394531 C 142.988281 322.589844 135.214844 319.742188 127.457031 316.625 C 125.828125 315.957031 125.671875 314.054688 124.121094 313.484375 C 120.566406 314.425781 117.207031 314.09375 114.066406 312.070312 C 115.539062 311.324219 117.699219 311.421875 117.855469 309.027344 C 122.097656 309.363281 125.984375 311.03125 129.8125 312.601562 C 137.058594 315.5625 144.558594 317.527344 152.277344 317.683594 C 158.460938 317.820312 164.664062 316.328125 170.871094 315.742188 C 174.128906 315.425781 177.367188 313.992188 180.707031 315.347656 C 182.121094 317.035156 183.535156 318.703125 184.929688 320.390625 Z M 184.929688 320.390625 " fill-opacity="1" fill-rule="nonzero"/><path fill="#6ea191" d="M 289.835938 92.367188 C 294.15625 92.757812 298.472656 94.171875 302.8125 92.289062 C 304.441406 91.582031 305.601562 92.875 306.679688 93.777344 C 310.332031 96.800781 314.457031 98.644531 319.1875 99.136719 C 321.347656 99.351562 323.292969 99.058594 323.960938 96.644531 C 324.507812 94.699219 326.019531 95.800781 327.0625 95.425781 C 328.925781 96.917969 329.4375 99.960938 328.359375 103.019531 C 326.785156 104.492188 325.117188 103.570312 323.605469 103.058594 C 319.5625 101.726562 315.734375 100.765625 312.335938 104.609375 C 310.882812 106.257812 308.742188 104.984375 306.898438 105.042969 C 303.539062 105.160156 300.535156 105.140625 298.90625 101.253906 C 298.082031 99.273438 295.746094 99.039062 293.644531 99.175781 C 288.382812 99.527344 283.277344 100.726562 278.054688 102.414062 C 277.484375 99.546875 278.425781 97.015625 279.507812 94.621094 C 280.214844 93.050781 279.546875 90.441406 281.390625 89.992188 C 283.550781 89.460938 283.296875 92.503906 284.710938 93.523438 C 285.808594 94.308594 286.691406 95.625 288.164062 95.367188 C 289.738281 95.09375 289.738281 93.621094 289.816406 92.347656 Z M 289.835938 92.367188 " fill-opacity="1" fill-rule="nonzero"/><path fill="#c5c981" d="M 300.164062 322.6875 C 286.613281 333.085938 272.183594 341.546875 256.632812 348.140625 C 246.660156 352.378906 236.292969 355.417969 225.808594 358.070312 C 224.609375 358.363281 223.667969 358.382812 223.253906 357.085938 C 222.683594 355.339844 224.316406 355.832031 224.980469 355.65625 C 240.90625 351.671875 254.90625 343.664062 268.589844 334.972656 C 271.203125 333.324219 273.988281 332.203125 277.074219 331.792969 C 280.941406 331.261719 284.101562 329.125 287.300781 327.101562 C 291.128906 324.628906 294.980469 322.117188 300.164062 322.6875 Z M 300.164062 322.6875 " fill-opacity="1" fill-rule="nonzero"/><path fill="#71a791" d="M 134.742188 75.980469 C 132.699219 76.332031 132.089844 75.292969 132.5625 73.253906 C 133.9375 67.285156 142.792969 62.339844 148.625 64.285156 C 152.078125 65.441406 155.28125 63.460938 155.652344 59.75 C 155.828125 57.964844 156.046875 56.21875 156.773438 54.570312 C 157.519531 52.863281 159.167969 52.550781 160.464844 53.175781 C 161.738281 53.785156 160.425781 54.964844 160.167969 55.867188 C 159.382812 58.535156 157.164062 60.378906 155.96875 62.773438 C 154.355469 65.953125 153.90625 69.582031 153.375 73.074219 C 152.882812 76.351562 151.195312 77.785156 148.09375 78.039062 C 147.582031 78.078125 146.992188 78.453125 146.640625 77.960938 C 143.988281 74.390625 140.417969 75.195312 136.882812 75.84375 C 136.214844 75.960938 135.566406 75.941406 134.742188 75.980469 Z M 134.742188 75.980469 " fill-opacity="1" fill-rule="nonzero"/><path fill="#d88b6a" d="M 148.761719 357.890625 C 164.941406 353.242188 181.433594 356.8125 197.769531 355.496094 C 195.980469 357.734375 193.429688 358.914062 192.289062 361.542969 C 191.839844 362.601562 190.367188 362.050781 189.386719 362.089844 C 175.660156 362.40625 162.152344 360.796875 148.761719 357.890625 Z M 148.761719 357.890625 " fill-opacity="1" fill-rule="nonzero"/><path fill="#e8b388" d="M 170.890625 63.597656 C 166.824219 65.226562 165.371094 61.046875 162.25 60.773438 C 163.171875 58.730469 164.054688 57.003906 164.742188 55.179688 C 166 51.882812 165.234375 50.332031 161.957031 49.117188 C 157.578125 47.488281 153.277344 49.507812 151.882812 53.941406 C 151.609375 54.804688 151.332031 55.375 150.410156 54.882812 C 149.351562 54.316406 147.878906 53.960938 148.644531 52.15625 C 149.664062 49.761719 151.648438 48.371094 153.984375 47.566406 C 157.398438 46.367188 160.738281 46.464844 164.035156 48.25 C 167.570312 50.175781 170.890625 52.3125 173.714844 55.238281 C 174.523438 56.082031 175.070312 56.847656 174.640625 57.984375 C 174.460938 58.457031 174.1875 59.183594 173.816406 59.261719 C 173.1875 59.417969 172.441406 58.867188 172.441406 58.261719 C 172.402344 56.453125 171.4375 56.257812 170.203125 56.945312 C 168.828125 57.691406 167.847656 58.867188 168.769531 60.554688 C 169.320312 61.535156 170.066406 62.441406 170.890625 63.597656 Z M 170.890625 63.597656 " fill-opacity="1" fill-rule="nonzero"/><path fill="#efab84" d="M 137.234375 44.660156 C 135.566406 47.074219 134.878906 49.683594 131.621094 49.644531 C 127.613281 49.605469 124.257812 48.210938 121.585938 45.230469 C 121.410156 45.035156 121.15625 44.582031 121.234375 44.484375 C 122.53125 42.796875 124.238281 41.558594 126.140625 40.65625 C 127.144531 40.1875 128.28125 40.1875 128.96875 41.246094 C 130.816406 44.03125 133.621094 44.582031 137.234375 44.660156 Z M 137.234375 44.660156 " fill-opacity="1" fill-rule="nonzero"/><path fill="#adb372" d="M 99.558594 37.417969 C 100.675781 41.050781 97.320312 40.816406 95.609375 41.597656 C 93.863281 42.402344 91.839844 42.601562 90.644531 44.386719 C 89.820312 44.71875 88.992188 44.738281 88.1875 44.308594 C 86.246094 46.210938 84.300781 46.074219 82.359375 44.308594 C 80.964844 43.148438 80.53125 41.441406 82.632812 41.304688 C 88.523438 40.933594 93.824219 38.261719 99.558594 37.417969 Z M 99.558594 37.417969 " fill-opacity="1" fill-rule="nonzero"/><path fill="#e1a183" d="M 273.085938 29.746094 C 266.746094 25.390625 259.363281 25.644531 251.863281 24.976562 C 257.28125 20.699219 264.289062 22.308594 273.085938 29.746094 Z M 273.085938 29.746094 " fill-opacity="1" fill-rule="nonzero"/><path fill="#43777b" d="M 328.378906 103 C 327.886719 100.488281 328.160156 97.839844 327.082031 95.40625 C 328.691406 94.5625 330.242188 92.445312 332.007812 95.132812 C 333.542969 97.46875 333.070312 100.078125 330.8125 101.628906 C 330.046875 102.15625 329.183594 102.550781 328.378906 103 Z M 328.378906 103 " fill-opacity="1" fill-rule="nonzero"/><path fill="#e0a992" d="M 256.398438 77.335938 C 254.257812 72.171875 250.976562 68.484375 246.421875 65.992188 C 245.597656 65.539062 245.304688 64.992188 245.753906 64.265625 C 246.1875 63.578125 246.875 63.929688 247.40625 64.265625 C 249.09375 65.363281 250.546875 66.71875 251.84375 68.230469 C 252.746094 69.269531 253.6875 70.230469 254.925781 70.859375 C 259.066406 72.996094 259.066406 72.996094 256.398438 77.335938 Z M 256.398438 77.335938 " fill-opacity="1" fill-rule="nonzero"/><path fill="#ddb593" d="M 61.445312 148.625 C 58.441406 144.308594 56.988281 139.578125 57.792969 134.28125 C 57.875 133.8125 57.617188 133.164062 58.226562 132.90625 C 58.992188 132.574219 59.328125 133.300781 59.757812 133.671875 C 60.601562 134.398438 61.035156 135.339844 60.820312 136.460938 C 60.050781 140.542969 60.757812 144.523438 61.445312 148.625 Z M 61.445312 148.625 " fill-opacity="1" fill-rule="nonzero"/><path fill="#dea981" d="M 176.957031 35.046875 C 171.929688 33.417969 168.511719 35.066406 165.332031 38.066406 C 164.054688 39.265625 162.25 37.5 160.363281 37.929688 C 163.703125 33.59375 173.285156 31.710938 176.957031 35.046875 Z M 176.957031 35.046875 " fill-opacity="1" fill-rule="nonzero"/><path fill="#4c676e" d="M 68.769531 51.628906 C 67.886719 53.589844 67.847656 54.707031 67.867188 55.867188 C 67.925781 58.925781 65.039062 61.027344 62.074219 60.105469 C 60.347656 59.554688 60.9375 58.652344 61.800781 57.867188 C 63.863281 55.945312 65.980469 54.121094 68.769531 51.628906 Z M 68.769531 51.628906 " fill-opacity="1" fill-rule="nonzero"/><path fill="#d1b6a2" d="M 144.675781 158.085938 C 139.335938 155.789062 133.898438 155.789062 127.734375 157.890625 C 131.71875 153.335938 139.511719 153.6875 144.675781 158.085938 Z M 144.675781 158.085938 " fill-opacity="1" fill-rule="nonzero"/><path fill="#b99682" d="M 272.734375 55.042969 C 273.890625 54.277344 272.8125 52.746094 273.773438 51.921875 C 273.519531 55.140625 274.636719 57.417969 278.015625 58.160156 C 279.074219 58.398438 280.703125 58.179688 280.84375 59.476562 C 280.980469 60.832031 279.269531 60.832031 278.289062 61.320312 C 277.839844 61.558594 277.328125 61.695312 276.660156 61.929688 C 276.601562 58.886719 274.207031 57.238281 272.734375 55.042969 Z M 272.734375 55.042969 " fill-opacity="1" fill-rule="nonzero"/><path fill="#dfad9a" d="M 197.730469 88.992188 C 194.3125 89.421875 191.722656 89.753906 188.855469 90.128906 C 188.953125 88.753906 189.640625 86.851562 190.71875 86.578125 C 192.976562 85.96875 195.019531 87.441406 197.730469 88.992188 Z M 197.730469 88.992188 " fill-opacity="1" fill-rule="nonzero"/><path fill="#9e9590" d="M 271.398438 64.285156 C 267.804688 65.597656 264.40625 64.109375 262.128906 60.417969 C 265.566406 60.851562 268.058594 62.988281 271.398438 64.285156 Z M 271.398438 64.285156 " fill-opacity="1" fill-rule="nonzero"/><path fill="#ada591" d="M 265.820312 69.484375 C 265.113281 69.976562 264.40625 70.445312 263.703125 70.9375 C 262.191406 69.835938 260.675781 68.757812 258.890625 68.167969 C 260.285156 67.660156 259.792969 66.011719 260.675781 65.207031 C 261.914062 67.1875 263.976562 68.210938 265.820312 69.484375 Z M 265.820312 69.484375 " fill-opacity="1" fill-rule="nonzero"/><path fill="#e1b091" d="M 246.109375 74.761719 C 244.949219 74.742188 243.890625 74.703125 244.320312 73.488281 C 244.753906 72.289062 245.167969 70.386719 246.34375 70.386719 C 247.265625 70.386719 248.898438 72.09375 248.9375 73.074219 C 248.957031 74.566406 247.089844 74.546875 246.109375 74.761719 Z M 246.109375 74.761719 " fill-opacity="1" fill-rule="nonzero"/><path fill="#97897b" d="M 154.238281 42.914062 C 157.046875 41.128906 159.738281 41.875 162.171875 41.363281 C 162.78125 41.226562 163.230469 41.972656 163.191406 42.679688 C 163.152344 43.328125 162.703125 43.582031 162.113281 43.347656 C 159.738281 42.363281 157.242188 43.207031 154.238281 42.914062 Z M 154.238281 42.914062 " fill-opacity="1" fill-rule="nonzero"/><path fill="#8b8b67" d="M 120.917969 165.011719 C 120.371094 164.011719 119.527344 163.636719 118.386719 163.777344 C 117.40625 163.894531 116.5 163.695312 116.582031 162.363281 C 117.207031 161.203125 118.25 160.753906 119.367188 161.363281 C 120.761719 162.109375 121.136719 163.480469 120.917969 165.011719 Z M 120.917969 165.011719 " fill-opacity="1" fill-rule="nonzero"/><path fill="#70ab95" d="M 133.132812 39.125 C 135.195312 40.109375 137.472656 40.246094 139.59375 41.070312 C 137.117188 41.539062 134.761719 41.5 132.816406 39.441406 C 132.9375 39.34375 133.035156 39.246094 133.132812 39.125 Z M 133.132812 39.125 " fill-opacity="1" fill-rule="nonzero"/><path fill="#5f5f67" d="M 289.855469 92.328125 C 287.773438 92.367188 285.988281 91.640625 284.023438 89.875 C 286.613281 90.089844 288.265625 91.128906 289.835938 92.367188 C 289.835938 92.367188 289.855469 92.328125 289.855469 92.328125 Z M 289.855469 92.328125 " fill-opacity="1" fill-rule="nonzero"/><path fill="#416b73" d="M 354.394531 252.90625 C 353.707031 254.378906 353.019531 255.847656 352.332031 257.339844 C 352.15625 257.261719 351.976562 257.203125 351.800781 257.125 C 352.429688 255.632812 353.078125 254.160156 353.707031 252.671875 C 353.941406 252.769531 354.15625 252.828125 354.394531 252.90625 Z M 354.394531 252.90625 " fill-opacity="1" fill-rule="nonzero"/><path fill="#827877" d="M 318.71875 93.289062 C 320.109375 93.894531 321.503906 94.503906 323.429688 95.328125 C 321.113281 95.484375 319.640625 95.054688 318.71875 93.289062 Z M 318.71875 93.289062 " fill-opacity="1" fill-rule="nonzero"/><path fill="#1f1518" d="M 225.648438 24.054688 C 232.265625 23.996094 236.488281 27.15625 240.277344 31.121094 C 241.21875 32.121094 241.476562 33.339844 240.808594 34.613281 C 240.140625 35.890625 238.980469 36.300781 237.625 36.203125 C 233.128906 35.910156 228.96875 34.632812 225.238281 32.0625 C 222.761719 30.375 220.523438 28.355469 217.050781 30.199219 C 215.734375 30.90625 213.652344 30.179688 213.359375 28.3125 C 212.984375 26 214.988281 25.980469 216.578125 25.980469 C 219.976562 25.980469 222.863281 23.371094 225.648438 24.054688 Z M 225.648438 24.054688 " fill-opacity="1" fill-rule="nonzero"/><path fill="#1e161b" d="M 167.433594 169.859375 C 164.941406 168.601562 162.171875 169.605469 159.382812 169.800781 C 157.929688 169.898438 156.554688 169.25 156.515625 167.5625 C 156.476562 165.757812 158.027344 165.640625 159.246094 165.855469 C 161.070312 166.167969 161.445312 165.542969 161.191406 163.894531 C 161.109375 163.34375 161.445312 162.65625 161.757812 162.148438 C 164.273438 158.125 174.523438 158.652344 176.820312 162.875 C 177.722656 164.542969 177.113281 165.757812 175.835938 166.679688 C 173.421875 168.445312 170.652344 169.347656 167.433594 169.859375 Z M 167.433594 169.859375 " fill-opacity="1" fill-rule="nonzero"/><path fill="#1f1316" d="M 224.863281 47.46875 C 227.710938 47.328125 229.988281 48.230469 231.578125 50.429688 C 233.289062 52.804688 232.523438 54.925781 229.695312 55.648438 C 225.886719 56.652344 222.234375 55.984375 218.71875 54.414062 C 217.246094 53.765625 216.441406 52.648438 216.480469 50.980469 C 216.519531 49.175781 217.914062 48.761719 219.191406 48.410156 C 221.074219 47.878906 223 47.269531 224.863281 47.46875 Z M 224.863281 47.46875 " fill-opacity="1" fill-rule="nonzero"/><path fill="#1a1a1a" d="M 222.410156 124.351562 C 216.933594 131.140625 201.34375 129.945312 193.175781 125.765625 C 202.953125 126.117188 212.867188 129.472656 222.410156 124.351562 Z M 222.410156 124.351562 " fill-opacity="1" fill-rule="nonzero"/><path fill="#1a1c1e" d="M 301.792969 287.503906 C 302.441406 287.757812 304.207031 287.285156 302.675781 288.953125 C 301.554688 290.191406 299.886719 290.269531 298.671875 291.25 C 292.621094 292.9375 286.554688 294.566406 280.351562 295.449219 C 278.347656 295.746094 276.246094 296.273438 274.046875 294.921875 C 276.464844 293.3125 279.074219 293.917969 281.429688 293.3125 C 287.203125 291.800781 293.035156 290.542969 298.828125 289.191406 C 299.984375 288.933594 300.890625 288.226562 301.792969 287.503906 Z M 301.792969 287.503906 " fill-opacity="1" fill-rule="nonzero"/><path fill="#171d1b" d="M 210.84375 18.582031 C 209.570312 20.152344 207.800781 19.953125 206.347656 20.054688 C 199.320312 20.445312 192.289062 19.816406 185.300781 19.167969 C 184.59375 19.109375 183.316406 19.40625 183.476562 18.109375 C 183.574219 17.207031 184.613281 17.34375 185.320312 17.363281 C 193.605469 17.757812 201.871094 18.265625 210.179688 18.070312 C 210.316406 18.050781 210.472656 18.285156 210.84375 18.582031 Z M 210.84375 18.582031 " fill-opacity="1" fill-rule="nonzero"/><path fill="#1f2524" d="M 230.890625 161.441406 C 239.160156 159.714844 247.835938 161.910156 256.378906 158.457031 C 254.179688 162.832031 238.414062 164.5 230.890625 161.441406 Z M 230.890625 161.441406 " fill-opacity="1" fill-rule="nonzero"/><path fill="#1c201e" d="M 229.320312 66.148438 C 224.550781 71.191406 207.78125 75.882812 201.242188 74.097656 C 210.804688 72.917969 219.71875 69.484375 229.320312 66.148438 Z M 229.320312 66.148438 " fill-opacity="1" fill-rule="nonzero"/><path fill="#171c1a" d="M 319.425781 228.90625 C 319.445312 229.277344 319.484375 229.652344 319.503906 230.003906 C 311.628906 232.8125 303.578125 234.792969 295.214844 235.1875 C 303.070312 232.144531 311.277344 230.613281 319.425781 228.90625 Z M 319.425781 228.90625 " fill-opacity="1" fill-rule="nonzero"/><path fill="#1b201e" d="M 220.484375 106.59375 C 227.320312 106.632812 233.855469 105.199219 240.769531 103.21875 C 237.117188 107.574219 224.765625 109.59375 220.484375 106.59375 Z M 220.484375 106.59375 " fill-opacity="1" fill-rule="nonzero"/><path fill="#1b201e" d="M 284.496094 265.308594 C 291.011719 263.757812 297.53125 262.207031 304.050781 260.65625 C 304.128906 260.953125 304.1875 261.265625 304.265625 261.558594 C 298.082031 264.5625 291.621094 266.269531 284.730469 266.269531 C 284.652344 265.957031 284.574219 265.640625 284.496094 265.308594 Z M 284.496094 265.308594 " fill-opacity="1" fill-rule="nonzero"/><path fill="#1b2322" d="M 234.78125 176.785156 C 230.992188 179.515625 220.78125 179.671875 217.738281 177.238281 C 217.402344 176.980469 216.992188 176.6875 217.207031 176.21875 C 217.578125 175.433594 218.285156 175.765625 218.835938 175.902344 C 222.332031 176.785156 225.867188 177.042969 229.4375 176.960938 C 231.109375 176.941406 232.71875 176.078125 234.78125 176.785156 Z M 234.78125 176.785156 " fill-opacity="1" fill-rule="nonzero"/><path fill="#1e1f1f" d="M 186.539062 133.59375 C 183.277344 136.125 173.007812 134.753906 170.144531 131.320312 C 175.894531 131.847656 181.097656 133.652344 186.539062 133.59375 Z M 186.539062 133.59375 " fill-opacity="1" fill-rule="nonzero"/><path fill="#1b201f" d="M 206.308594 143.347656 C 212.613281 143.308594 218.226562 143.800781 224.335938 142.503906 C 220.742188 146.035156 211.160156 146.429688 206.308594 143.347656 Z M 206.308594 143.347656 " fill-opacity="1" fill-rule="nonzero"/><path fill="#1b1e1b" d="M 262.816406 280.085938 C 267.6875 279.847656 271.496094 278.296875 275.5 277.652344 C 275.5625 277.652344 275.640625 277.769531 275.71875 277.828125 C 272.890625 281.027344 267.117188 282.320312 262.816406 280.085938 Z M 262.816406 280.085938 " fill-opacity="1" fill-rule="nonzero"/><path fill="#1b2725" d="M 248.308594 176.53125 C 250.957031 176.277344 253.472656 176.019531 256.300781 175.746094 C 253.765625 178.691406 250.113281 179.003906 248.308594 176.53125 Z M 248.308594 176.53125 " fill-opacity="1" fill-rule="nonzero"/><path fill="#121f24" d="M 142.417969 22.878906 C 142.28125 21.542969 139.492188 20.582031 141.261719 19.328125 C 142.714844 18.285156 143.105469 20.777344 144.050781 21.582031 C 144.65625 22.113281 145.070312 22.859375 145.582031 23.527344 C 144.109375 25.390625 143.441406 23.25 142.417969 22.878906 Z M 142.417969 22.878906 " fill-opacity="1" fill-rule="nonzero"/><path fill="#111e22" d="M 119.152344 31.628906 C 116.953125 28.550781 116.953125 28.550781 116.777344 26.273438 C 118.976562 27.3125 119.425781 29.707031 121.039062 31.042969 C 120.644531 32.003906 119.839844 31.648438 119.152344 31.628906 Z M 119.152344 31.628906 " fill-opacity="1" fill-rule="nonzero"/><path fill="#1b1d1f" d="M 48.78125 219.859375 C 57.933594 226.609375 67.671875 232.066406 79.3125 234.519531 C 72.207031 237.011719 54.871094 228.613281 48.78125 219.859375 Z M 48.78125 219.859375 " fill-opacity="1" fill-rule="nonzero"/><path fill="#1d1f1f" d="M 155.378906 290.878906 C 145.070312 292.605469 135.3125 291.09375 126.179688 285.953125 C 135.742188 288.601562 145.441406 290.367188 155.378906 290.878906 Z M 155.378906 290.878906 " fill-opacity="1" fill-rule="nonzero"/><path fill="#1c1e1f" d="M 28.675781 139.1875 C 34.273438 145.09375 37 151.863281 41.359375 157.535156 C 37.277344 156.261719 29.894531 145.605469 28.675781 139.1875 Z M 28.675781 139.1875 " fill-opacity="1" fill-rule="nonzero"/><path fill="#1c1f1f" d="M 118.800781 211.128906 C 110.828125 210.539062 103.210938 208.578125 95.808594 205.652344 C 95.886719 205.300781 95.984375 204.925781 96.0625 204.574219 C 103.71875 206.359375 111.398438 208.125 119.054688 209.910156 C 118.976562 210.324219 118.878906 210.714844 118.800781 211.128906 Z M 118.800781 211.128906 " fill-opacity="1" fill-rule="nonzero"/><path fill="#1d2221" d="M 172.65625 305.203125 C 165.214844 307.261719 157.929688 306.871094 150.902344 303.339844 C 158.125 304.144531 165.351562 305.164062 172.65625 305.203125 Z M 172.65625 305.203125 " fill-opacity="1" fill-rule="nonzero"/><path fill="#171b1e" d="M 15.304688 209.242188 C 15.601562 208.65625 16.128906 208.535156 16.71875 208.515625 C 20.921875 214.425781 24.925781 220.488281 29.933594 225.804688 C 25.789062 224.078125 23.023438 220.898438 20.566406 217.425781 C 18.703125 214.796875 17.054688 211.992188 15.304688 209.242188 Z M 15.304688 209.242188 " fill-opacity="1" fill-rule="nonzero"/><path fill="#1c1e21" d="M 63.175781 268.171875 C 70.007812 269.195312 75.898438 272.6875 82.023438 275.570312 C 75.113281 274.746094 69.046875 271.746094 63.175781 268.171875 Z M 63.175781 268.171875 " fill-opacity="1" fill-rule="nonzero"/><path fill="#191b1f" d="M 61.308594 195.507812 C 67.0625 199.097656 72.738281 202.769531 80.160156 203.199219 C 75.113281 205.945312 64.234375 201.433594 61.308594 195.507812 Z M 61.308594 195.507812 " fill-opacity="1" fill-rule="nonzero"/><path fill="#1c1e21" d="M 120.546875 266.683594 C 113.773438 268.210938 104.703125 265.40625 101.070312 260.773438 C 107.390625 263.265625 113.714844 265.757812 120.546875 266.683594 Z M 120.546875 266.683594 " fill-opacity="1" fill-rule="nonzero"/><path fill="#212423" d="M 46.742188 111.183594 C 42.929688 106.886719 41.007812 101.667969 39.457031 96.269531 C 39.886719 96.054688 40.339844 95.839844 40.773438 95.625 C 43.128906 100.609375 45.484375 105.59375 47.839844 110.578125 C 47.488281 110.792969 47.113281 110.988281 46.742188 111.183594 Z M 46.742188 111.183594 " fill-opacity="1" fill-rule="nonzero"/><path fill="#1d1f21" d="M 20.804688 164.324219 C 24.886719 169.171875 27.183594 174.429688 31.308594 178.828125 C 27.007812 178.53125 21.371094 170.761719 20.804688 164.324219 Z M 20.804688 164.324219 " fill-opacity="1" fill-rule="nonzero"/><path fill="#1b1d1e" d="M 34.234375 200.6875 C 28.597656 197.921875 26.261719 192.839844 24.652344 187.226562 C 28.519531 191.230469 30.679688 196.449219 34.234375 200.6875 Z M 34.234375 200.6875 " fill-opacity="1" fill-rule="nonzero"/><path fill="#1f2222" d="M 100.519531 194.054688 C 94.628906 193.722656 88.835938 193.015625 84.457031 188.402344 C 89.820312 190.246094 95.257812 191.855469 100.519531 194.054688 Z M 100.519531 194.054688 " fill-opacity="1" fill-rule="nonzero"/><path fill="#1e2023" d="M 81.140625 283.183594 C 86.246094 285.246094 91.605469 286.226562 97.59375 287.167969 C 92.785156 289.464844 84.085938 287.324219 81.140625 283.183594 Z M 81.140625 283.183594 " fill-opacity="1" fill-rule="nonzero"/><path fill="#212425" d="M 106.15625 226.867188 C 111.003906 228.238281 115.636719 230.144531 120.449219 231.554688 C 114.851562 232.4375 110.101562 230.75 106.15625 226.867188 Z M 106.15625 226.867188 " fill-opacity="1" fill-rule="nonzero"/><path fill="#311817" d="M 217.246094 231.398438 C 220.523438 231.8125 224.511719 232.242188 227.691406 235.046875 C 228.261719 235.558594 229.242188 236.167969 228.59375 237.089844 C 227.886719 238.128906 227.042969 237.226562 226.433594 236.835938 C 222.980469 234.597656 219.050781 234.007812 215.125 233.378906 C 214.320312 233.242188 212.828125 233.714844 212.945312 232.300781 C 213.042969 231.105469 214.417969 231.457031 215.320312 231.398438 C 215.734375 231.378906 216.148438 231.398438 217.246094 231.398438 Z M 217.246094 231.398438 " fill-opacity="1" fill-rule="nonzero"/><path fill="#391b17" d="M 202.816406 277.867188 C 206.507812 276.472656 212.984375 278.378906 214.554688 280.910156 C 214.773438 281.261719 215.066406 281.59375 214.753906 282.007812 C 214.378906 282.5 213.867188 282.578125 213.398438 282.222656 C 210.414062 279.90625 206.761719 279.0625 202.816406 277.867188 Z M 202.816406 277.867188 " fill-opacity="1" fill-rule="nonzero"/><path fill="#41211d" d="M 206.761719 250.804688 C 211.121094 251.472656 214.832031 252.984375 219.03125 253.199219 C 216.617188 255.691406 210.136719 254.417969 206.761719 250.804688 Z M 206.761719 250.804688 " fill-opacity="1" fill-rule="nonzero"/><path fill="#381d14" d="M 188.855469 208.617188 C 187.539062 211.226562 185.28125 211.914062 183.316406 212.933594 C 182.886719 213.167969 182.238281 212.992188 182.003906 212.402344 C 181.921875 212.207031 182.082031 211.753906 182.257812 211.636719 C 184.242188 210.480469 185.871094 208.515625 188.855469 208.617188 Z M 188.855469 208.617188 " fill-opacity="1" fill-rule="nonzero"/><path fill="#411e18" d="M 207.214844 297.195312 C 209.453125 296.195312 211.710938 295.175781 213.949219 294.175781 C 214.417969 293.957031 215.007812 293.703125 215.242188 294.390625 C 215.339844 294.683594 215.144531 295.332031 214.890625 295.46875 C 212.574219 296.765625 210.257812 298.097656 207.507812 297.960938 C 207.410156 297.726562 207.3125 297.472656 207.214844 297.195312 Z M 207.214844 297.195312 " fill-opacity="1" fill-rule="nonzero"/><path fill="#3c1b18" d="M 197.769531 214.894531 C 199.125 215.523438 200.734375 215.738281 201.734375 217.09375 C 201.8125 217.191406 201.558594 217.703125 201.34375 217.800781 C 199.75 218.566406 198.59375 217.328125 197.277344 216.816406 C 196.628906 216.582031 195.628906 216.464844 195.824219 215.523438 C 196.039062 214.582031 197.023438 214.992188 197.769531 214.894531 Z M 197.769531 214.894531 " fill-opacity="1" fill-rule="nonzero"/><path fill="#431f17" d="M 192.449219 247.960938 C 194.058594 248.53125 195.863281 248.414062 196.609375 250.039062 C 196.964844 250.804688 196.039062 251.179688 195.472656 250.925781 C 194.078125 250.335938 192.328125 250.21875 191.445312 248.941406 C 190.957031 248.214844 192.191406 248.3125 192.449219 247.960938 Z M 192.449219 247.960938 " fill-opacity="1" fill-rule="nonzero"/><path fill="#402016" d="M 170.890625 217.386719 C 171.753906 217.640625 173.324219 216.878906 173.246094 218.035156 C 173.128906 219.507812 171.378906 219.269531 170.222656 219.308594 C 169.417969 219.351562 167.90625 219.878906 167.984375 218.585938 C 168.0625 216.738281 169.945312 217.878906 170.890625 217.386719 Z M 170.890625 217.386719 " fill-opacity="1" fill-rule="nonzero"/><path fill="#36150e" d="M 238.550781 262.972656 C 237.625 262.460938 235.957031 262.894531 235.820312 261.1875 C 235.761719 260.5 236.683594 260.207031 237.273438 260.460938 C 238.414062 260.953125 240.257812 260.636719 240.453125 262.34375 C 240.53125 263.304688 239.296875 262.816406 238.550781 262.972656 Z M 238.550781 262.972656 " fill-opacity="1" fill-rule="nonzero"/><path fill="#532e23" d="M 183.296875 249.453125 C 183.277344 250.140625 182.828125 250.433594 182.296875 250.277344 C 181.199219 249.941406 179.726562 250 179.429688 248.492188 C 179.3125 247.921875 180.058594 247.726562 180.589844 247.84375 C 181.628906 248.117188 182.867188 248.136719 183.296875 249.453125 Z M 183.296875 249.453125 " fill-opacity="1" fill-rule="nonzero"/><path fill="#4a251b" d="M 217.050781 219.878906 C 216.894531 220.800781 216.1875 220.722656 215.597656 220.683594 C 214.714844 220.625 213.554688 220.878906 213.398438 219.546875 C 213.300781 218.644531 214.066406 218.625 214.695312 218.742188 C 215.558594 218.9375 216.578125 218.859375 217.050781 219.878906 Z M 217.050781 219.878906 " fill-opacity="1" fill-rule="nonzero"/><path fill="#522a1a" d="M 163.347656 228.613281 C 162.683594 228.691406 162.09375 228.453125 162.171875 227.90625 C 162.328125 226.785156 163.449219 226.746094 164.292969 226.472656 C 164.882812 226.277344 165.410156 226.628906 165.351562 227.199219 C 165.234375 228.394531 164.054688 228.257812 163.347656 228.613281 Z M 163.347656 228.613281 " fill-opacity="1" fill-rule="nonzero"/><path fill="#271915" d="M 103.25 59.144531 C 107.039062 61.105469 110.472656 62.714844 113.773438 64.617188 C 117.265625 66.640625 121.097656 65.441406 124.984375 65.835938 C 120.566406 70.523438 105.742188 66.070312 103.25 59.144531 Z M 103.25 59.144531 " fill-opacity="1" fill-rule="nonzero"/><path fill="#2b2119" d="M 118.367188 116.660156 C 115.519531 118.386719 108.214844 116.265625 107.039062 113.5 C 106.859375 113.109375 106.703125 112.734375 107 112.34375 C 107.449219 111.753906 107.902344 112.027344 108.332031 112.363281 C 111.21875 114.71875 114.851562 115.421875 118.367188 116.660156 Z M 118.367188 116.660156 " fill-opacity="1" fill-rule="nonzero"/><path fill="#231a11" d="M 84.242188 136.304688 C 81.296875 136.636719 75.25 133.046875 74.40625 130.769531 C 74.269531 130.375 74.089844 129.964844 74.542969 129.648438 C 75.054688 129.277344 75.601562 129.453125 75.996094 129.769531 C 78.6875 131.847656 81.335938 133.988281 84.242188 136.304688 Z M 84.242188 136.304688 " fill-opacity="1" fill-rule="nonzero"/><path fill="#2a1f19" d="M 81.140625 88.992188 C 84.792969 90.640625 87.835938 91.992188 90.859375 93.425781 C 91.09375 93.542969 91.191406 94.132812 91.191406 94.503906 C 91.191406 94.621094 90.742188 94.820312 90.464844 94.878906 C 88.503906 95.289062 82.671875 91.933594 81.140625 88.992188 Z M 81.140625 88.992188 " fill-opacity="1" fill-rule="nonzero"/><path fill="#2c2518" d="M 125.316406 123.097656 C 124.886719 123.136719 124.472656 123.117188 124.277344 122.644531 C 124.0625 122.113281 124.472656 121.800781 124.808594 121.644531 C 126.847656 120.585938 128.929688 119.5625 130.992188 118.542969 C 131.382812 118.347656 131.816406 118.289062 132.109375 118.71875 C 132.464844 119.25 132.25 119.761719 131.835938 120.113281 C 129.933594 121.703125 127.671875 122.527344 125.316406 123.097656 Z M 125.316406 123.097656 " fill-opacity="1" fill-rule="nonzero"/><path fill="#2c201b" d="M 100.910156 88.675781 C 103.050781 88.8125 104.976562 89.402344 107.507812 90.699219 C 105.171875 92.484375 102.246094 91.601562 100.910156 88.675781 Z M 100.910156 88.675781 " fill-opacity="1" fill-rule="nonzero"/><path fill="#3b3618" d="M 97.101562 107.808594 C 98.144531 108.320312 99.4375 108.691406 99.910156 109.929688 C 100.144531 110.535156 99.359375 110.753906 98.871094 110.597656 C 97.691406 110.203125 96.472656 109.710938 95.945312 108.535156 C 95.75 108.105469 96.433594 107.730469 97.101562 107.808594 Z M 97.101562 107.808594 " fill-opacity="1" fill-rule="nonzero"/><path fill="#352e19" d="M 140.652344 111.773438 C 142.773438 110.164062 142.773438 110.164062 145.070312 110.261719 C 144.34375 112.421875 142.871094 112.382812 140.652344 111.773438 Z M 140.652344 111.773438 " fill-opacity="1" fill-rule="nonzero"/><path fill="#252412" d="M 88.167969 44.308594 C 89.011719 43.484375 89.820312 43.71875 90.625 44.386719 C 90.484375 45.269531 91.566406 46.703125 89.917969 46.917969 C 88.109375 47.132812 88.246094 45.523438 88.167969 44.308594 Z M 88.167969 44.308594 " fill-opacity="1" fill-rule="nonzero"/><path fill="#363216" d="M 141.164062 105.335938 C 140.984375 106.296875 140.613281 106.75 139.945312 106.847656 C 139.296875 106.945312 138.628906 106.867188 138.667969 106.003906 C 138.707031 105.277344 139.238281 104.925781 139.945312 104.984375 C 140.378906 105.003906 140.789062 105.21875 141.164062 105.335938 Z M 141.164062 105.335938 " fill-opacity="1" fill-rule="nonzero"/><path fill="#3f1918" d="M 349.855469 195.3125 C 351.171875 207.8125 350.542969 214.503906 347.558594 220.113281 C 346.933594 219.269531 347.519531 218.289062 347.226562 217.425781 C 348.363281 211.070312 348.816406 204.671875 348.699219 198.214844 C 348.699219 197.175781 348.34375 195.820312 349.855469 195.3125 Z M 349.855469 195.3125 " fill-opacity="1" fill-rule="nonzero"/><path fill="#361e17" d="M 338.941406 173.3125 C 338.785156 173.527344 338.703125 173.746094 338.546875 173.863281 C 335.957031 175.882812 332.992188 177.179688 329.910156 178.179688 C 329.28125 178.394531 328.613281 178.101562 328.457031 177.355469 C 328.339844 176.726562 328.867188 176.53125 329.378906 176.296875 C 331.949219 175.136719 334.484375 173.902344 337.074219 172.761719 C 337.761719 172.46875 338.683594 171.9375 338.941406 173.3125 Z M 338.941406 173.3125 " fill-opacity="1" fill-rule="nonzero"/><path fill="#331519" d="M 316.910156 143.015625 C 320.070312 144.742188 323.46875 144.898438 326.886719 145.054688 C 327.472656 145.074219 328.359375 145.210938 328.378906 145.917969 C 328.398438 146.996094 327.375 146.800781 326.726562 146.78125 C 323.035156 146.742188 319.070312 147.449219 316.910156 143.015625 Z M 316.910156 143.015625 " fill-opacity="1" fill-rule="nonzero"/><path fill="#3d2019" d="M 293.566406 159.832031 C 289.992188 161.597656 285.988281 160.675781 282.296875 161.636719 C 285.554688 157.910156 289.597656 159.046875 293.566406 159.832031 Z M 293.566406 159.832031 " fill-opacity="1" fill-rule="nonzero"/><path fill="#381916" d="M 337.191406 186.402344 C 337.113281 186.382812 336.386719 186.304688 335.699219 186.066406 C 334.914062 185.792969 333.875 185.421875 334.148438 184.417969 C 334.445312 183.300781 335.601562 183.8125 336.269531 184.027344 C 338.234375 184.65625 339.960938 184.144531 341.710938 183.378906 C 342.277344 183.125 343.082031 182.96875 343.398438 183.574219 C 343.75 184.242188 343.101562 184.753906 342.574219 185.066406 C 341.140625 185.929688 339.570312 186.519531 337.191406 186.402344 Z M 337.191406 186.402344 " fill-opacity="1" fill-rule="nonzero"/><path fill="#371610" d="M 337.566406 150.058594 C 337.191406 153.179688 335.996094 155.554688 333.855469 157.398438 C 333.402344 157.789062 332.835938 158.339844 332.265625 157.730469 C 331.734375 157.164062 332.148438 156.515625 332.617188 156.101562 C 334.484375 154.414062 335.445312 152.277344 335.9375 149.882812 C 336.054688 149.273438 336.074219 148.46875 336.917969 148.605469 C 337.9375 148.785156 337.566406 149.707031 337.566406 150.058594 Z M 337.566406 150.058594 " fill-opacity="1" fill-rule="nonzero"/><path fill="#381d18" d="M 279.390625 134.851562 C 280.332031 138.835938 278.996094 141.289062 276.972656 143.542969 C 276.523438 144.035156 275.933594 144.425781 275.324219 144.035156 C 274.558594 143.523438 275.109375 142.875 275.480469 142.464844 C 277.269531 140.503906 277.523438 137.734375 279.390625 134.851562 Z M 279.390625 134.851562 " fill-opacity="1" fill-rule="nonzero"/><path fill="#431f17" d="M 330.890625 118.40625 C 329.710938 121.191406 327.277344 122.253906 324.726562 123.15625 C 323.941406 123.429688 323.195312 123.078125 322.9375 122.3125 C 322.644531 121.390625 323.546875 121.371094 324.078125 121.25 C 326.492188 120.683594 328.417969 118.976562 330.890625 118.40625 Z M 330.890625 118.40625 " fill-opacity="1" fill-rule="nonzero"/><path fill="#382117" d="M 295.824219 138.753906 C 295.585938 139.011719 295.390625 139.363281 295.078125 139.558594 C 293.09375 140.816406 291.484375 142.777344 288.851562 142.71875 C 288.675781 142.71875 288.324219 142.113281 288.363281 142.070312 C 289.953125 140.226562 292.328125 139.519531 294.253906 138.167969 C 294.882812 137.695312 295.410156 137.949219 295.824219 138.753906 Z M 295.824219 138.753906 " fill-opacity="1" fill-rule="nonzero"/><path fill="#42241f" d="M 300.96875 117.71875 C 299.808594 117.445312 298.160156 117.875 297.964844 116.148438 C 297.867188 115.265625 298.90625 115.070312 299.652344 115.382812 C 300.949219 115.933594 303.148438 114.972656 303.460938 116.757812 C 303.714844 118.074219 301.949219 117.660156 300.96875 117.71875 Z M 300.96875 117.71875 " fill-opacity="1" fill-rule="nonzero"/><path fill="#4b261d" d="M 315.535156 123.902344 C 314.730469 123.605469 313.335938 123.84375 313.394531 122.625 C 313.453125 121.488281 314.710938 121.957031 315.476562 121.957031 C 316.300781 121.957031 317.441406 121.957031 317.480469 122.996094 C 317.539062 124.273438 316.300781 123.78125 315.535156 123.902344 Z M 315.535156 123.902344 " fill-opacity="1" fill-rule="nonzero"/><path fill="#161c1f" d="M 257.574219 321.039062 C 266.15625 319.097656 274.972656 318.3125 283.453125 315.839844 C 285.0625 315.621094 286.554688 314.640625 288.285156 314.976562 C 288.246094 316.625 286.929688 316.527344 286.027344 316.859375 C 279.390625 319.292969 272.359375 319.921875 265.429688 320.980469 C 262.875 321.371094 260.207031 322.746094 257.574219 321.039062 Z M 257.574219 321.039062 " fill-opacity="1" fill-rule="nonzero"/><path fill="#171b23" d="M 122.960938 329.929688 C 129.675781 332.066406 136.628906 332.96875 143.617188 333.714844 C 145.953125 333.972656 148.328125 334.03125 150.546875 334.933594 C 148.171875 336.226562 145.582031 335.640625 143.125 335.539062 C 137.472656 335.324219 131.875 334.5 126.515625 332.558594 C 125.160156 332.066406 123.335938 331.871094 122.960938 329.929688 Z M 122.960938 329.929688 " fill-opacity="1" fill-rule="nonzero"/><path fill="#121a1e" d="M 282.84375 307.734375 C 289.65625 305.085938 296.863281 303.671875 303.992188 300.53125 C 303.695312 302.238281 302.695312 302.574219 301.851562 302.984375 C 296.53125 305.554688 290.816406 306.910156 285.121094 308.285156 C 284.335938 308.5 283.414062 308.65625 282.84375 307.734375 C 282.824219 307.753906 282.84375 307.734375 282.84375 307.734375 Z M 282.84375 307.734375 " fill-opacity="1" fill-rule="nonzero"/><path fill="#181a25" d="M 64.785156 298.394531 C 67.101562 298.628906 68.535156 300.472656 70.4375 301.472656 C 74.03125 303.359375 77.605469 305.242188 81.179688 307.144531 C 80.667969 308.144531 79.707031 307.949219 78.980469 307.734375 C 73.738281 306.125 68.945312 303.652344 65.175781 299.550781 C 64.921875 299.277344 64.902344 298.785156 64.785156 298.394531 Z M 64.785156 298.394531 " fill-opacity="1" fill-rule="nonzero"/><path fill="#1d1c27" d="M 93.921875 325.140625 C 99.675781 328.261719 104.621094 331.734375 110.691406 333.480469 C 106.902344 335.304688 96.21875 330.105469 93.921875 325.140625 Z M 93.921875 325.140625 " fill-opacity="1" fill-rule="nonzero"/><path fill="#171c22" d="M 173.734375 343.46875 C 179.410156 343.15625 185.105469 342.820312 191.386719 342.46875 C 188.558594 344.804688 176.484375 345.609375 173.734375 343.46875 Z M 173.734375 343.46875 " fill-opacity="1" fill-rule="nonzero"/><path fill="#192122" d="M 234.210938 324.101562 C 238.6875 324.53125 242.96875 322.785156 247.425781 322.960938 C 247.386719 323.160156 247.40625 323.492188 247.304688 323.550781 C 242.222656 326.0625 236.980469 326.984375 231.441406 324.472656 C 232.34375 324.355469 233.269531 324.238281 234.210938 324.101562 Z M 234.210938 324.101562 " fill-opacity="1" fill-rule="nonzero"/><path fill="#172029" d="M 129.105469 342.878906 C 134.015625 342.800781 138.628906 344.46875 143.34375 345.726562 C 138.296875 346.609375 133.621094 345.3125 129.105469 342.878906 Z M 129.105469 342.878906 " fill-opacity="1" fill-rule="nonzero"/><path fill="#1b2023" d="M 237.546875 339.679688 C 232.582031 340.582031 227.632812 341.976562 222.488281 340.605469 C 222.46875 340.269531 222.449219 339.957031 222.410156 339.621094 C 227.417969 339.289062 232.441406 338.957031 237.449219 338.621094 C 237.488281 338.996094 237.527344 339.328125 237.546875 339.679688 Z M 237.546875 339.679688 " fill-opacity="1" fill-rule="nonzero"/><path fill="#33130f" d="M 352.253906 140.148438 C 355.550781 148.058594 355.492188 156.28125 354.15625 164.601562 C 353.058594 156.496094 353.234375 148.292969 352.253906 140.148438 Z M 352.253906 140.148438 " fill-opacity="1" fill-rule="nonzero"/><path fill="#3b1813" d="M 358.378906 198.273438 C 356.90625 196.761719 357.398438 194.957031 357.457031 193.289062 C 357.59375 188.796875 357.867188 184.320312 358.105469 179.828125 C 358.144531 179.238281 358.003906 178.433594 358.871094 178.375 C 359.65625 178.316406 359.910156 179.003906 359.910156 179.652344 C 360.046875 185.890625 359.792969 192.113281 358.378906 198.273438 Z M 358.378906 198.273438 " fill-opacity="1" fill-rule="nonzero"/><path fill="#371812" d="M 350.289062 236.578125 C 349.71875 240.03125 348.148438 243.09375 346.5 246.117188 C 346.246094 246.566406 345.8125 247.078125 345.261719 246.804688 C 344.574219 246.449219 344.695312 245.683594 344.988281 245.15625 C 346.65625 242.132812 348.109375 239.03125 348.71875 235.597656 C 348.796875 235.128906 349.070312 234.519531 349.757812 234.910156 C 350.425781 235.304688 350.367188 235.972656 350.289062 236.578125 Z M 350.289062 236.578125 " fill-opacity="1" fill-rule="nonzero"/><path fill="#451b16" d="M 354.902344 221.683594 C 356.257812 224.921875 354.882812 227.199219 354.253906 229.535156 C 354.136719 229.945312 353.746094 230.203125 353.253906 230.042969 C 352.605469 229.847656 352.585938 229.339844 352.722656 228.789062 C 353.273438 226.570312 353.546875 224.292969 354.902344 221.683594 Z M 354.902344 221.683594 " fill-opacity="1" fill-rule="nonzero"/><path fill="#492318" d="M 361.167969 190.246094 C 361.363281 189.402344 360.792969 187.992188 362.128906 187.953125 C 363.5625 187.914062 363.011719 189.324219 363.050781 190.148438 C 363.089844 191.070312 363.128906 192.464844 362.070312 192.484375 C 360.675781 192.503906 361.382812 191.050781 361.167969 190.246094 Z M 361.167969 190.246094 " fill-opacity="1" fill-rule="nonzero"/><path fill="#401a0f" d="M 362.621094 196.214844 C 363.289062 197.824219 363.445312 198.980469 362.621094 200.078125 C 362.402344 200.375 361.753906 200.414062 361.539062 199.960938 C 360.910156 198.6875 361.363281 197.585938 362.621094 196.214844 Z M 362.621094 196.214844 " fill-opacity="1" fill-rule="nonzero"/><path fill="#441f13" d="M 344.8125 253.886719 C 344.613281 254.789062 344.105469 255.632812 342.984375 255.890625 C 342.457031 256.007812 342.199219 255.554688 342.355469 255.144531 C 342.730469 254.160156 342.691406 252.789062 344.085938 252.574219 C 344.574219 252.492188 344.851562 253.121094 344.8125 253.886719 Z M 344.8125 253.886719 " fill-opacity="1" fill-rule="nonzero"/><path fill="#201618" d="M 308.878906 65.1875 C 315.753906 66.128906 321.542969 69.230469 326.179688 74.3125 C 328.101562 76.410156 326.765625 78.628906 325.765625 80.730469 C 324.390625 81.199219 323.074219 80.691406 321.722656 80.492188 C 318.894531 80.101562 316.222656 80.277344 314.203125 82.632812 C 312.789062 84.28125 311.472656 83.554688 310.53125 82.339844 C 308.683594 79.945312 307.015625 77.394531 305.367188 74.839844 C 303.894531 72.585938 304.207031 70.5625 306.230469 68.679688 C 307.289062 67.699219 308.015625 66.34375 308.878906 65.1875 Z M 308.878906 65.1875 " fill-opacity="1" fill-rule="nonzero"/><path fill="#351f1f" d="M 302.046875 78.058594 C 302.578125 78.058594 303.109375 77.960938 303.617188 78.078125 C 304.601562 78.316406 306.230469 77.667969 306.230469 79.433594 C 306.230469 80.886719 305.128906 81.554688 303.65625 81.59375 C 301.96875 81.632812 300.320312 81.414062 298.691406 80.964844 C 297.84375 80.730469 296.941406 80.355469 296.980469 79.394531 C 297.039062 78.316406 298.121094 78.335938 298.90625 78.21875 C 299.945312 78.078125 300.988281 78.039062 302.027344 77.960938 C 302.046875 78 302.046875 78.039062 302.046875 78.058594 Z M 302.046875 78.058594 " fill-opacity="1" fill-rule="nonzero"/><path fill="#3f211b" d="M 280.46875 75.84375 C 278.308594 78.472656 275.460938 79.847656 272.164062 80.375 C 274.1875 77.472656 277.171875 76.371094 280.46875 75.84375 Z M 280.46875 75.84375 " fill-opacity="1" fill-rule="nonzero"/><path fill="#3c2319" d="M 266.175781 102.882812 C 266.449219 101.960938 267 101.253906 267.824219 100.902344 C 268.570312 100.566406 269.453125 99.882812 270.0625 100.804688 C 270.515625 101.492188 269.769531 102.195312 269.199219 102.648438 C 268.21875 103.433594 267.214844 104.199219 266.117188 104.828125 C 265.546875 105.160156 264.878906 104.886719 264.507812 104.257812 C 264.25 103.824219 263.859375 103.335938 264.269531 102.824219 C 264.644531 102.355469 265.113281 101.785156 266.175781 102.882812 Z M 266.175781 102.882812 " fill-opacity="1" fill-rule="nonzero"/><path fill="#3e211a" d="M 286.691406 73.761719 C 288.929688 71.664062 291.621094 70.5625 294.585938 70.015625 C 292.464844 72.371094 289.855469 73.664062 286.691406 73.761719 Z M 286.691406 73.761719 " fill-opacity="1" fill-rule="nonzero"/><path fill="#462315" d="M 298.179688 64.148438 C 298.199219 63.65625 298.433594 63.265625 298.925781 63.324219 C 299.90625 63.441406 300.769531 63.910156 301.183594 64.792969 C 301.476562 65.402344 300.890625 65.757812 300.320312 65.71875 C 299.296875 65.636719 298.53125 65.148438 298.179688 64.148438 Z M 298.179688 64.148438 " fill-opacity="1" fill-rule="nonzero"/><path fill="#4d2515" d="M 307.976562 61.398438 C 308.230469 60.96875 308.429688 60.457031 308.78125 60.105469 C 309.449219 59.457031 310.46875 59.164062 310.941406 60.046875 C 311.53125 61.144531 310.351562 61.300781 309.605469 61.578125 C 309.3125 61.675781 309.039062 61.832031 308.761719 61.96875 C 308.507812 61.773438 308.25 61.578125 307.976562 61.398438 Z M 307.976562 61.398438 " fill-opacity="1" fill-rule="nonzero"/><path fill="#181e22" d="M 114.085938 312.070312 C 117.445312 312.542969 120.78125 313.011719 124.140625 313.484375 C 124.160156 314.738281 123.238281 314.738281 122.390625 314.699219 C 110.257812 314.230469 98.792969 311.460938 88.601562 304.554688 C 88.464844 304.457031 88.425781 304.203125 88.011719 303.242188 C 96.769531 307.242188 105.152344 310.539062 114.085938 312.070312 Z M 114.085938 312.070312 " fill-opacity="1" fill-rule="nonzero"/><path fill="#1b1e23" d="M 151.53125 322.394531 C 154.925781 322 158.167969 323.019531 161.40625 323.628906 C 167.433594 324.765625 173.226562 323.53125 179.058594 322.375 C 179.234375 323.238281 178.859375 323.804688 178.054688 324.101562 C 169.496094 327.101562 160.992188 326.789062 152.589844 323.492188 C 152.15625 323.316406 151.882812 322.765625 151.53125 322.394531 Z M 151.53125 322.394531 " fill-opacity="1" fill-rule="nonzero"/><path fill="#431b19" d="M 342.535156 100.863281 C 343.554688 100.097656 341.628906 98.527344 343.378906 98.253906 C 344.125 98.136719 344.632812 99.058594 344.753906 99.742188 C 344.910156 100.707031 346.066406 102.039062 344.988281 102.589844 C 343.691406 103.257812 342.238281 102.058594 340.863281 101.667969 C 339.804688 101.371094 339.351562 100.609375 340.117188 99.527344 C 341.257812 99.410156 341.316406 101.019531 342.535156 100.863281 Z M 342.535156 100.863281 " fill-opacity="1" fill-rule="nonzero"/><path fill="#4b2019" d="M 280.921875 39.265625 C 281.136719 38.8125 281.273438 38.304688 281.570312 37.890625 C 281.960938 37.320312 280.195312 36.203125 281.980469 36.085938 C 282.921875 36.027344 283.570312 36.714844 283.492188 37.675781 C 283.414062 38.675781 283.335938 39.871094 281.765625 39.636719 C 281.488281 39.597656 281.214844 39.402344 280.921875 39.265625 C 280.941406 39.285156 280.921875 39.265625 280.921875 39.265625 Z M 280.921875 39.265625 " fill-opacity="1" fill-rule="nonzero"/><path fill="#d7ac95" d="M 236.371094 32.59375 C 231.894531 32.472656 228.535156 29.960938 224.53125 28.019531 C 228.730469 27.019531 233.109375 28.785156 236.371094 32.59375 Z M 236.371094 32.59375 " fill-opacity="1" fill-rule="nonzero"/><path fill="#eab99a" d="M 172.363281 164.03125 C 170.613281 165.542969 168.886719 165.894531 167.121094 165.933594 C 166.292969 165.953125 165.351562 165.660156 165.3125 164.582031 C 165.273438 163.636719 166.175781 163.480469 166.863281 163.324219 C 168.671875 162.851562 170.378906 163.402344 172.363281 164.03125 Z M 172.363281 164.03125 " fill-opacity="1" fill-rule="nonzero"/><path fill="#c19e8f" d="M 228.59375 52.332031 C 225.808594 52.804688 223.589844 52.53125 221.351562 51.726562 C 224.785156 50.332031 225.316406 50.351562 228.59375 52.332031 Z M 228.59375 52.332031 " fill-opacity="1" fill-rule="nonzero"/><path fill="#679d88" d="M 323.273438 77.078125 C 319.933594 76.039062 317.046875 77 314.0625 78.21875 C 312.179688 79.003906 311.472656 76.863281 310.511719 75.765625 C 308.839844 73.898438 307.425781 71.859375 310.136719 69.640625 C 310.628906 69.25 311.136719 68.679688 311.785156 69.011719 C 315.929688 71.132812 320.523438 72.566406 323.273438 77.078125 Z M 323.273438 77.078125 " fill-opacity="1" fill-rule="nonzero"/></svg>